<?xml version="1.0" encoding="utf-8"?>
<!-- Generator: Adobe Illustrator 27.5.0, SVG Export Plug-In . SVG Version: 6.00 Build 0)  -->
<svg version="1.1" xmlns="http://www.w3.org/2000/svg" xmlns:xlink="http://www.w3.org/1999/xlink" x="0px" y="0px"
	 viewBox="0 0 1122 1122" style="enable-background:new 0 0 1122 1122;" xml:space="preserve">
<g id="Background">
	<rect x="0" style="fill:#6087A2;" width="1122" height="1122"/>
</g>
<g id="object">
	<path style="opacity:0.92;fill:#394959;" d="M887.751,523.294c43.69-0.788,90.75-0.641,126.36,23.392
		c15.909,10.736,29.07,27.488,28.424,46.003c-1.825,52.334-100.865,65.557-97.788,117.838c1.657,28.158,32.954,44.319,55.639,62.538
		c35.44,28.463,55.293,73.535,51.738,117.465c-1.839,22.727-10.321,45.973-28.414,60.965
		c-14.297,11.847-33.081,17.446-51.494,21.816c-75.974,18.03-154.982,20.254-233.264,22.386
		c-97.729,2.662-195.457,5.325-293.185,7.987c-75.273,2.051-154.422,3.292-220.992-30.113
		c-66.57-33.405-113.144-114.175-79.65-178.178c9.521-18.194,25.154-37.58,17.402-56.515c-3.568-8.715-11.503-14.99-18.405-21.664
		c-40.002-38.681-51.838-118.115-11.954-161.486c39.381-42.824,159.212-21.683,216.656-22.719
		C528.466,529.772,708.108,526.533,887.751,523.294z"/>
	<g>
		<path style="fill:#8C776B;" d="M835.555,247.54c2.645,5.044,5.617,9.945,7.33,15.468c1.343,4.329,1.896,8.996,3.829,13.037
			c1.037,2.167,2.445,4.094,3.472,6.266c1.024,2.167,1.65,4.535,2.269,6.887c1.313,4.986,2.631,10,3.176,15.168
			c0.463,4.395,0.317,9.056-1.567,12.997c-2.475,5.179-7.49,8.238-12.427,10.368c-5.203,2.245-10.919,3.808-16.307,2.363
			c-4.037-1.083-7.538-3.761-10.812-6.559c-7.359-6.29-14.074-13.435-20.772-20.565c-4.654-4.954-9.322-9.925-13.355-15.504
			c-4.203-5.815-7.672-12.231-11.613-18.267c-5.743-8.798-12.734-17.39-14.115-28.174c-1.538-12.002,4.456-23.967,12.446-32.437
			c5.112-5.42,11.318-9.928,18.272-11.253c4.238-0.807,8.579-0.404,12.803,0.366c5.854,1.067,11.598,2.835,17.093,5.263
			c6.381,2.819,6.306,4.084,7.973,11.275C825.955,225.904,830.103,237.144,835.555,247.54z"/>
		<g>
			<g>
				<g>
					<path style="fill:#F0CFC2;" d="M805.378,220.053c0.472-12.193-9.775-22.49-22.888-22.998
						c-13.113-0.508-24.126,8.965-24.599,21.159c-0.079,2.036,0.166,4.011,0.648,5.905c0.002,0.479-0.007,0.971-0.034,1.483
						c-0.239,4.396-0.211,8.833,0.482,13.205c1.348,8.508,5.413,16.531,13.496,21.654c2.692,1.707,5.807,3.047,9.1,3.151
						c4.428,0.14,8.577-1.979,11.763-4.685c10.521-8.938,11.94-22.929,11.736-36.192
						C805.23,221.856,805.343,220.965,805.378,220.053z"/>
				</g>
			</g>
		</g>
		<path style="fill:#8C776B;" d="M766.944,196.67c-5.239,4.102-10.767,8.614-12.665,14.992c-1.66,5.579-0.291,11.93-2.952,17.107
			c-2.476,4.818-8.06,7.756-9.603,12.948c-1.505,5.061,1.647,10.653,6.205,13.319c1.058,0.619,2.227,1.151,2.956,2.136
			c0.662,0.894,0.867,2.042,0.96,3.151c0.21,2.479-0.043,4.996-0.74,7.384c-0.199,0.682-0.437,1.392-0.299,2.089
			c0.288,1.457,2.024,2.117,3.509,2.147c1.485,0.03,3.041-0.291,4.41,0.283c0.905,0.38,1.609,1.107,2.329,1.774
			c2.657,2.463,6.985,4.265,9.715,1.883c1.699-1.482,1.998-4.086,1.387-6.256c-0.611-2.17-1.961-4.041-3.169-5.945
			c-2.399-3.779-4.309-7.843-6.212-11.895c-1.638-3.488-3.299-7.052-3.75-10.879c-0.388-3.293,0.14-6.617,0.666-9.891
			c0.468-2.911,0.936-5.823,1.405-8.734c0.378-2.352,0.775-4.757,1.928-6.841c1.607-2.901,4.482-4.841,6.686-7.319
			c2.806-3.154,4.471-7.275,4.758-11.478C774.982,189.08,770.419,193.949,766.944,196.67z"/>
		<path style="fill:#8C776B;" d="M797.476,212.68c4.496,2.667,6.942,8.387,5.765,13.481c-1.058,4.576-4.659,8.407-4.987,13.091
			c-0.351,5.01,3.156,9.715,2.709,14.718c-0.329,3.686-2.721,6.827-4.891,9.981c2.052,0.152,4.046,0.491,5.979,1.021
			c0.549-0.675,1.179-1.266,1.943-1.71c2.272-1.319,5.194-0.989,7.537-2.178c7.026-3.565,2.771-15.733,8.49-21.152
			c1.458-1.381,3.434-2.148,4.793-3.626c2.816-3.063,2.027-7.968,0.32-11.762c-1.707-3.794-4.197-7.445-4.315-11.604
			c-0.055-1.958,0.43-3.924,0.158-5.864c-0.669-4.771-5.455-7.676-9.732-9.894c-7.56-3.921-15.378-7.918-23.867-8.607
			c-7.386-0.599-20.943,5.018-16.732,14.667C774.961,213.125,789.897,208.183,797.476,212.68z"/>
		<g>
			<path style="fill:#F0CFC2;" d="M751.907,323.731c-3.497,7.935-7.172,16.674-14.603,20.743c-4.397,2.408-9.516,2.789-14.444,2.721
				c-8.696-0.12-17.303-1.48-25.875-2.853c-3.435-0.55-7.056-1.188-9.688-3.513c-2.632-2.325-3.699-6.948-1.265-9.593
				c12.491-0.068,24.982-0.135,37.472-0.203c1.16-0.006,2.371-0.025,3.412-0.579c1.27-0.677,2.062-2.026,2.773-3.314
				c5.447-9.868,10.146-20.172,14.038-30.783c1.497-4.08,2.913-8.281,5.47-11.762c2.556-3.481,6.534-6.181,10.69-5.88
				C780.351,280.198,755.203,316.253,751.907,323.731z"/>
		</g>
		<g>
			<path style="fill:#F0CFC2;" d="M680.046,330.93c-0.435-0.129-0.896-0.259-1.337-0.135c-0.446,0.126-0.792,0.489-1.196,0.726
				c-1.308,0.767-2.901,0.11-4.282-0.442c-1.381-0.552-3.167-0.901-4.192,0.244c-0.409,0.456-0.604,1.069-0.773,1.664
				c-0.546,1.926-0.916,4.103,0.024,5.825c0.477,0.873,1.249,1.533,2.086,2.034c4.239,2.54,9.592,1.186,14.522,1.311
				c0.903,0.023,1.845,0.091,2.678-0.291c2.186-1.002,2.649-5.078,1.557-7.035C687.601,332.082,682.782,331.744,680.046,330.93z"/>
		</g>
		<path style="fill:#9AAAB5;" d="M697.386,344.777c0.14,0.763,0.301,1.559,0.775,2.154c0.723,0.907,1.966,1.111,3.098,1.25
			c8.55,1.049,17.14,1.796,25.75,2.238c4.052,0.208,8.426,0.259,11.817-2.135c2.3-1.624,3.826-4.165,5.281-6.628
			c2.612-4.421,5.224-8.842,7.836-13.263c4.134-6.998,8.294-14.049,11.094-21.709c2.799-7.66,4.184-16.057,2.58-23.993
			c-0.46-2.275-1.26-4.64-3.06-5.997c-3.065-2.309-7.492-0.678-10.609,1.682c-1.688,1.278-3.248,2.76-4.508,4.492
			c-1.446,1.988-2.47,4.261-3.482,6.515c-5.527,12.306-11.054,24.612-16.581,36.918c-0.482,1.074-1.046,2.235-2.083,2.727
			c-0.722,0.342-1.546,0.292-2.331,0.235c-7.914-0.575-15.825-1.245-23.747-1.726c-4.244-0.258-3.965,1.368-3.546,5.337
			C696.09,336.866,696.663,340.838,697.386,344.777z"/>
		<g>
			<path style="fill:#262626;" d="M781.474,427.424c-1.063,9.055-1.198,18.191-1.297,27.308c-0.102,9.385-0.166,18.771-0.193,28.157
				c-0.029,10.036-0.016,20.073,0.23,30.106c0.693,28.225,1.594,69.182,4.129,97.301c3.952,0.967,8.07,1.255,12.118,0.847
				c2.774-35.34,3.568-84.105,10.969-118.772c5.975-27.986,16.554-54.924,16.493-83.54c-0.018-8.584-1.325-18.196-7.229-24.883
				c-4.332-4.906-13.022-9.598-19.209-5.281c-5.446,3.8-7.463,13.199-9.357,19.056C785.002,407.391,782.66,417.327,781.474,427.424z
				"/>
			<path style="fill:#262626;" d="M737.892,402.065c-2.174,9.388-4.296,35.746-5.6,45.309c-1.342,9.845-2.651,19.695-3.926,29.55
				c-1.363,10.537-2.688,21.081-3.799,31.646c-3.127,29.724-6.2,72.389-7.634,102.215c3.472,1.472,10.276,2.25,14.019,2.289
				c7.233-36.796,14.103-87.704,25.462-123.259c9.17-28.702,20.311-55.936,24.066-85.998c1.126-9.017-1.005-18.862-5.493-26.568
				c-3.293-5.653-10.586-11.585-16.798-7.765c-5.468,3.362-7.775-3.778-10.28,2.155
				C743.773,381.432,740.317,391.597,737.892,402.065z"/>
			<path style="fill:#383838;" d="M731.631,605.882c0.436,0.063,0.889,0.152,1.232,0.427c0.523,0.42,0.652,1.151,0.739,1.816
				c1.288,9.852-0.875,19.883-2.361,29.707c-1.041,6.881-0.572,6.992-2.604,14.896c-1.074,0.408-4.825,0.883-4.869-0.266
				c-0.232-6.076-0.135-8.043,0.291-14.109c0.07-1,0.145-2.032-0.185-2.979c-0.331-0.946-1.184-1.788-2.186-1.769
				c-1.693,0.033-2.386,2.157-2.612,3.836c-0.372,2.77-0.745,5.54-1.117,8.31c-0.441,3.284-1.084,2.804-3.735,4.791
				c-1.636,1.227-3.748,1.576-5.769,1.888c-5.394,0.834-10.808,1.669-16.266,1.765c-2.375,0.042-4.851-0.082-6.943-1.207
				c-2.619-1.409-4.225-4.169-5.283-6.948c-1.575-4.138-2.019-5.218,1.055-8.405c2.219-2.301,5.67-2.893,8.867-2.903
				s6.448,0.43,9.558-0.311c2.342-0.559,4.475-1.76,6.531-3.015c2.118-1.292,4.262-2.726,5.553-4.844
				c1.308-2.145,1.591-4.743,1.788-7.248c0.278-3.542-0.956-10.537,2.555-12.811C718.951,604.509,728.287,605.396,731.631,605.882z"
				/>
			<path style="fill:#383838;" d="M789.401,601.62c2.734-0.246,5.731,0.602,7.358,2.813c0.757,1.029,1.168,2.27,1.485,3.507
				c2.59,10.113-0.318,21.188,3.163,31.029c0.584,1.65,1.343,3.248,1.718,4.958c0.569,2.599-0.812,2.227-0.386,4.853
				c0.138,0.848,0.357,1.705,0.233,2.556c-0.261,1.788-1.917,2.996-3.474,3.911c-2.637,1.549-5.649,2.908-8.659,2.366
				c-1.611-0.29-3.073-1.104-4.5-1.905c-0.79-0.443-1.592-0.896-2.218-1.551c-0.75-0.785-1.196-1.809-1.559-2.832
				c-2.401-6.775-0.714-11.092-0.874-18.278c-0.157-7.102-1.146-14.168-1.097-21.277c0.015-2.143-0.391-5.496,1.131-7.273
				C783.319,602.634,787.116,601.826,789.401,601.62z"/>
		</g>
		<path style="fill:#EBEFEB;" d="M707.887,445.966c-2.982,3.533-6.443,7.729-6.114,13.103c0.374,6.104,5.48,9.478,9.947,9.996
			c4.466,0.518,9.207-0.499,13.255,2.131c5.177,3.364,7.592,11.598,12.046,16.529c4.174,4.62,10.174,5.943,15.199,3.351
			c5.041-2.6,8.883-8.669,14.049-10.762c10.075-4.082,22.484,7.786,30.684-1.194c3.385-3.707,5.05-10.328,9.107-12.428
			c4.616-2.388,9.666,2.417,14.57,1.648c4.808-0.754,8.405-6.892,9.493-13.335c1.088-6.444,0.209-13.167-0.672-19.67
			c-1.379-10.179-2.759-20.359-4.138-30.538c-1.142-8.428-3.123-18.272-9.032-21.15c-3.616-1.761-7.6-0.227-11.259,1.359
			c-10.733,4.652-21.427,9.747-32.542,12.212c-6.785,1.505-9.754-8.862-16.586-10.084c-7.689-1.375-11.615-7.463-16.493,1.993
			C730.985,405.443,719.029,432.763,707.887,445.966z"/>
		<path style="fill:#91A1AB;" d="M752.762,285.99c-2.468,8.538-3.538,17.404-4.869,26.191c-2.989,19.73-7.334,39.226-11.675,58.703
			c-1.291,5.792-2.582,11.583-3.872,17.375c-0.163,0.73-0.326,1.489-0.168,2.22c0.136,0.628,0.498,1.182,0.878,1.701
			c1.92,2.621,4.489,4.762,7.412,6.178c4.738,2.295,10.161,2.63,15.425,2.743c20.834,0.447,41.728-1.971,61.91-7.164
			c1.184-0.305,2.412-0.643,3.333-1.447c1.394-1.218,1.773-3.215,1.913-5.061c0.85-11.292-4.07-22.148-5.764-33.345
			c-1.239-8.193-0.742-16.565-1.835-24.779c-0.93-6.986-3.002-13.783-3.917-20.771c-0.645-4.929-0.713-9.935-1.667-14.814
			c-1.059-5.417-3.199-10.618-3.746-16.11c-0.263-2.636-0.157-5.327-0.814-7.894s-2.286-5.096-4.814-5.888
			c-2.165-0.678-4.492,0.033-6.656,0.712c-4.984,1.564-10.08,2.984-15.302,3.14c-5.457,0.162-12.413-4.671-16.602-0.645
			C757.198,271.583,754.53,279.874,752.762,285.99z"/>
		<path style="fill:#F7F7F7;" d="M635.992,176.068c-0.016-14.888,1.007-45.468-2.379-56.58c-2.772-9.098-16.989-6.548-20.883-6.29
			c-6.983,0.463-13.965,0-20.945,0.67c-15.747,1.511-28.371-2.642-44.102-0.08c-1.886,0.307-7.001,2.762-8.609,5.854
			c-3.32,6.383-2.318,28.532-2.303,40.84c0.117,92.707,0.049,168.753-0.457,261.46c-0.208,37.964-0.835,57.899,0.609,84.087
			c0.489,8.867,1.36,21.385,3.477,27.491c3.606,10.398,13.256,8.732,18.122,8.462c22.938-1.274,45.106,5.355,67.942-1.168
			c1.617-0.462,3.297-0.987,4.681-3.64c3.476-6.661,4.505-36.473,4.47-49.354c-0.277-101.006,0.424-153.244,0.425-247.737
			C636.041,218.626,636.027,206.884,635.992,176.068z"/>
		<g>
			<path style="fill:#5E5E5E;" d="M617.346,219.276c-0.007-1.484,0.455-4.533-1.076-5.64c-1.253-0.907-7.682-0.653-9.443-0.627
				c-3.158,0.046-6.315,0-9.471,0.067c-7.121,0.151-12.829-0.263-19.943-0.008c-0.853,0.031-3.166,0.275-3.893,0.584
				c-1.501,0.636-1.048,2.844-1.041,4.071c0.053,9.242,0.022,16.822-0.207,26.064c-0.094,3.784-0.377,5.772,0.275,8.382
				c0.221,0.884,0.615,2.132,1.572,2.74c1.631,1.036,5.995,0.87,8.195,0.844c10.372-0.127,20.397,0.534,30.724-0.116
				c0.731-0.046,1.491-0.098,2.117-0.363c1.572-0.664,2.037-3.636,2.021-4.92c-0.125-10.069,0.192-15.276,0.192-24.696
				C617.367,223.518,617.361,222.348,617.346,219.276z"/>
			<path style="fill:#303030;" d="M614.931,219.574c-0.007-1.035,0.406-3.16-0.959-3.932c-1.117-0.632-6.847-0.455-8.417-0.437
				c-2.814,0.032-5.628,0-8.442,0.046c-6.347,0.105-11.435-0.184-17.775-0.006c-0.76,0.021-2.822,0.192-3.47,0.407
				c-1.338,0.444-0.934,1.983-0.928,2.838c0.047,6.443,0.02,11.727-0.184,18.17c-0.084,2.638-0.336,4.024,0.245,5.844
				c0.197,0.616,0.548,1.486,1.401,1.91c0.975,0.485,3.045,0.592,4.894,0.604c0.026,0.981-0.026,1.433-0.01,2.841
				c0.007,0.564-0.133,0.646,0.257,0.941c0.132,0.1,0.367,0.24,0.938,0.309c0.609,0.073,1.855,0.093,3.025,0.097
				c0.015,0.906-0.001,1.393,0.055,2.767c0.017,0.428-0.155,0.651,0.113,0.945c0.091,0.1,0.253,0.24,0.646,0.309
				c0.67,0.117,2.463,0.098,3.367,0.095c4.262-0.014,8.381,0.06,12.624-0.013c0.3-0.005,0.612-0.011,0.87-0.041
				c0.646-0.075,0.837-0.41,0.83-0.555c-0.051-1.135,0.079-1.722,0.079-2.784c0-0.241-0.003-0.373-0.009-0.719l0.001-0.006
				c0.543-0.007,1.081-0.007,1.626-0.014c0.437-0.005,0.89-0.011,1.263-0.041c0.938-0.075,1.216-0.41,1.206-0.555
				c-0.075-1.135,0.114-1.722,0.115-2.784c0-0.241-0.004-0.373-0.013-0.719c0-0.02,0.003-0.042,0.008-0.065
				c0.932-0.029,1.864-0.06,2.8-0.106c0.652-0.032,1.329-0.069,1.887-0.253c1.401-0.463,1.816-2.535,1.802-3.43
				c-0.112-7.019,0.171-10.649,0.171-17.216C614.951,222.531,614.945,221.715,614.931,219.574z"/>
			<g>
				<path style="fill:#F7F7F7;" d="M580.3,221.266c-0.006-1.12,0.01-2.019,0-3.138c-0.001-0.134-0.01-0.498-0.022-0.612
					c-0.024-0.236-0.099-0.22-0.145-0.219c-0.345,0.008-0.494-0.001-0.982,0.022c-0.142,0.007-0.216-0.059-0.313,0.043
					c-0.033,0.035-0.08,0.097-0.103,0.247c-0.039,0.257-0.032,0.943-0.031,1.289c0.005,1.632-0.02,3.209,0.004,4.834
					c0.002,0.115,0.004,0.235,0.014,0.333c0.024,0.247,0.136,0.321,0.184,0.318c0.376-0.02,0.571,0.03,0.923,0.03
					c0.08,0,0.123-0.001,0.238-0.003c0.055-0.001,0.169,0.072,0.211-0.169c0.034-0.197,0.024-1.209,0.023-1.486
					C580.3,222.26,580.302,221.763,580.3,221.266z"/>
				<path style="fill:#F7F7F7;" d="M583.373,221.266c-0.006-1.12,0.01-2.019,0-3.138c-0.001-0.134-0.01-0.498-0.022-0.612
					c-0.024-0.236-0.099-0.22-0.145-0.219c-0.345,0.008-0.494-0.001-0.982,0.022c-0.142,0.007-0.216-0.059-0.313,0.043
					c-0.033,0.035-0.08,0.097-0.103,0.247c-0.039,0.257-0.033,0.943-0.031,1.289c0.005,1.632-0.02,3.209,0.004,4.834
					c0.002,0.115,0.004,0.235,0.014,0.333c0.025,0.247,0.136,0.321,0.184,0.318c0.376-0.02,0.571,0.03,0.923,0.03
					c0.08,0,0.124-0.001,0.238-0.003c0.055-0.001,0.169,0.072,0.211-0.169c0.034-0.197,0.024-1.209,0.023-1.486
					C583.374,222.26,583.376,221.763,583.373,221.266z"/>
				<path style="fill:#F7F7F7;" d="M586.377,221.266c-0.006-1.12,0.01-2.019,0-3.138c-0.001-0.134-0.01-0.498-0.022-0.612
					c-0.024-0.236-0.099-0.22-0.145-0.219c-0.345,0.008-0.494-0.001-0.982,0.022c-0.142,0.007-0.216-0.059-0.313,0.043
					c-0.033,0.035-0.08,0.097-0.103,0.247c-0.039,0.257-0.033,0.943-0.031,1.289c0.005,1.632-0.02,3.209,0.004,4.834
					c0.002,0.115,0.003,0.235,0.014,0.333c0.025,0.247,0.136,0.321,0.184,0.318c0.376-0.02,0.571,0.03,0.923,0.03
					c0.08,0,0.124-0.001,0.238-0.003c0.055-0.001,0.169,0.072,0.211-0.169c0.034-0.197,0.024-1.209,0.023-1.486
					C586.377,222.26,586.379,221.763,586.377,221.266z"/>
				<path style="fill:#F7F7F7;" d="M589.45,221.266c-0.006-1.12,0.01-2.019,0-3.138c-0.001-0.134-0.01-0.498-0.022-0.612
					c-0.024-0.236-0.099-0.22-0.145-0.219c-0.345,0.008-0.494-0.001-0.982,0.022c-0.142,0.007-0.216-0.059-0.313,0.043
					c-0.033,0.035-0.08,0.097-0.103,0.247c-0.039,0.257-0.032,0.943-0.031,1.289c0.005,1.632-0.02,3.209,0.004,4.834
					c0.002,0.115,0.004,0.235,0.014,0.333c0.024,0.247,0.136,0.321,0.184,0.318c0.376-0.02,0.571,0.03,0.923,0.03
					c0.08,0,0.124-0.001,0.239-0.003c0.055-0.001,0.169,0.072,0.211-0.169c0.034-0.197,0.024-1.209,0.023-1.486
					C589.451,222.26,589.453,221.763,589.45,221.266z"/>
				<path style="fill:#F7F7F7;" d="M592.593,221.266c-0.006-1.12,0.01-2.019,0-3.138c-0.001-0.134-0.01-0.498-0.022-0.612
					c-0.024-0.236-0.099-0.22-0.145-0.219c-0.345,0.008-0.494-0.001-0.982,0.022c-0.142,0.007-0.216-0.059-0.313,0.043
					c-0.033,0.035-0.08,0.097-0.103,0.247c-0.039,0.257-0.032,0.943-0.031,1.289c0.005,1.632-0.02,3.209,0.004,4.834
					c0.002,0.115,0.003,0.235,0.014,0.333c0.025,0.247,0.136,0.321,0.184,0.318c0.376-0.02,0.571,0.03,0.923,0.03
					c0.08,0,0.124-0.001,0.239-0.003c0.055-0.001,0.169,0.072,0.211-0.169c0.034-0.197,0.024-1.209,0.023-1.486
					C592.594,222.26,592.596,221.763,592.593,221.266z"/>
				<path style="fill:#F7F7F7;" d="M595.667,221.266c-0.006-1.12,0.01-2.019,0-3.138c-0.001-0.134-0.01-0.498-0.022-0.612
					c-0.024-0.236-0.099-0.22-0.145-0.219c-0.345,0.008-0.494-0.001-0.982,0.022c-0.142,0.007-0.216-0.059-0.313,0.043
					c-0.033,0.035-0.08,0.097-0.102,0.247c-0.039,0.257-0.033,0.943-0.031,1.289c0.005,1.632-0.02,3.209,0.004,4.834
					c0.002,0.115,0.004,0.235,0.014,0.333c0.024,0.247,0.136,0.321,0.184,0.318c0.376-0.02,0.571,0.03,0.923,0.03
					c0.08,0,0.124-0.001,0.238-0.003c0.055-0.001,0.169,0.072,0.211-0.169c0.034-0.197,0.024-1.209,0.023-1.486
					C595.667,222.26,595.669,221.763,595.667,221.266z"/>
				<path style="fill:#F7F7F7;" d="M598.67,221.266c-0.006-1.12,0.01-2.019,0-3.138c-0.001-0.134-0.01-0.498-0.022-0.612
					c-0.024-0.236-0.099-0.22-0.145-0.219c-0.345,0.008-0.494-0.001-0.982,0.022c-0.142,0.007-0.216-0.059-0.314,0.043
					c-0.033,0.035-0.08,0.097-0.102,0.247c-0.039,0.257-0.032,0.943-0.031,1.289c0.005,1.632-0.02,3.209,0.004,4.834
					c0.002,0.115,0.003,0.235,0.014,0.333c0.025,0.247,0.136,0.321,0.184,0.318c0.376-0.02,0.571,0.03,0.923,0.03
					c0.08,0,0.124-0.001,0.238-0.003c0.055-0.001,0.169,0.072,0.211-0.169c0.034-0.197,0.024-1.209,0.024-1.486
					C598.671,222.26,598.673,221.763,598.67,221.266z"/>
				<path style="fill:#F7F7F7;" d="M601.744,221.266c-0.006-1.12,0.01-2.019,0-3.138c-0.001-0.134-0.01-0.498-0.022-0.612
					c-0.024-0.236-0.099-0.22-0.145-0.219c-0.345,0.008-0.494-0.001-0.982,0.022c-0.142,0.007-0.216-0.059-0.313,0.043
					c-0.033,0.035-0.08,0.097-0.103,0.247c-0.039,0.257-0.033,0.943-0.031,1.289c0.005,1.632-0.02,3.209,0.004,4.834
					c0.002,0.115,0.003,0.235,0.014,0.333c0.025,0.247,0.136,0.321,0.184,0.318c0.376-0.02,0.571,0.03,0.923,0.03
					c0.08,0,0.124-0.001,0.239-0.003c0.055-0.001,0.169,0.072,0.211-0.169c0.034-0.197,0.024-1.209,0.023-1.486
					C601.744,222.26,601.746,221.763,601.744,221.266z"/>
				<path style="fill:#F7F7F7;" d="M604.835,221.281c-0.005-1.12,0.01-2.018,0.001-3.138c-0.002-0.134-0.01-0.498-0.022-0.613
					c-0.024-0.236-0.099-0.22-0.145-0.219c-0.345,0.008-0.494-0.001-0.982,0.022c-0.142,0.007-0.216-0.059-0.313,0.043
					c-0.033,0.035-0.08,0.097-0.103,0.247c-0.039,0.257-0.033,0.943-0.032,1.289c0.005,1.632-0.02,3.209,0.004,4.834
					c0.002,0.115,0.004,0.235,0.014,0.333c0.024,0.247,0.136,0.321,0.184,0.318c0.376-0.02,0.571,0.03,0.923,0.03
					c0.08,0,0.124-0.001,0.238-0.003c0.056-0.001,0.17,0.072,0.211-0.169c0.034-0.197,0.024-1.209,0.023-1.486
					C604.836,222.275,604.838,221.778,604.835,221.281z"/>
				<path style="fill:#F7F7F7;" d="M607.908,221.281c-0.006-1.12,0.01-2.018,0-3.138c-0.002-0.134-0.01-0.498-0.022-0.613
					c-0.024-0.236-0.099-0.22-0.145-0.219c-0.345,0.008-0.494-0.001-0.982,0.022c-0.142,0.007-0.216-0.059-0.313,0.043
					c-0.033,0.035-0.08,0.097-0.103,0.247c-0.039,0.257-0.033,0.943-0.032,1.289c0.005,1.632-0.02,3.209,0.004,4.834
					c0.002,0.115,0.004,0.235,0.014,0.333c0.025,0.247,0.136,0.321,0.184,0.318c0.376-0.02,0.571,0.03,0.923,0.03
					c0.08,0,0.124-0.001,0.238-0.003c0.056-0.001,0.17,0.072,0.211-0.169c0.034-0.197,0.024-1.209,0.023-1.486
					C607.909,222.275,607.911,221.778,607.908,221.281z"/>
				<path style="fill:#F7F7F7;" d="M610.912,221.281c-0.005-1.12,0.01-2.018,0-3.138c-0.002-0.134-0.01-0.498-0.022-0.613
					c-0.024-0.236-0.099-0.22-0.145-0.219c-0.345,0.008-0.494-0.001-0.982,0.022c-0.142,0.007-0.215-0.059-0.313,0.043
					c-0.033,0.035-0.08,0.097-0.103,0.247c-0.039,0.257-0.033,0.943-0.032,1.289c0.005,1.632-0.02,3.209,0.004,4.834
					c0.002,0.115,0.004,0.235,0.014,0.333c0.025,0.247,0.136,0.321,0.184,0.318c0.377-0.02,0.571,0.03,0.923,0.03
					c0.08,0,0.124-0.001,0.238-0.003c0.056-0.001,0.17,0.072,0.211-0.169c0.034-0.197,0.024-1.209,0.023-1.486
					C610.912,222.275,610.914,221.778,610.912,221.281z"/>
			</g>
		</g>
		<g>
			<path style="fill:#5E5E5E;" d="M617.346,162.793c-0.007-1.484,0.455-4.533-1.076-5.64c-1.253-0.907-7.682-0.653-9.443-0.627
				c-3.158,0.046-6.315,0-9.471,0.067c-7.121,0.151-12.829-0.263-19.943-0.008c-0.853,0.031-3.166,0.275-3.893,0.584
				c-1.501,0.636-1.048,2.844-1.041,4.071c0.053,9.242,0.022,16.822-0.207,26.064c-0.094,3.784-0.377,5.772,0.275,8.382
				c0.221,0.884,0.615,2.132,1.572,2.74c1.631,1.036,5.995,0.87,8.195,0.844c10.372-0.127,20.397,0.534,30.724-0.116
				c0.731-0.046,1.491-0.098,2.117-0.363c1.572-0.664,2.037-3.636,2.021-4.92c-0.125-10.069,0.192-15.276,0.192-24.696
				C617.367,167.036,617.361,165.865,617.346,162.793z"/>
			<path style="fill:#303030;" d="M614.931,163.092c-0.007-1.035,0.406-3.16-0.959-3.932c-1.117-0.632-6.847-0.455-8.417-0.437
				c-2.814,0.032-5.628,0-8.442,0.046c-6.347,0.105-11.435-0.184-17.775-0.006c-0.76,0.021-2.822,0.192-3.47,0.407
				c-1.338,0.444-0.934,1.983-0.928,2.838c0.047,6.443,0.02,11.727-0.184,18.17c-0.084,2.638-0.336,4.024,0.245,5.844
				c0.197,0.616,0.548,1.486,1.401,1.91c0.975,0.485,3.045,0.592,4.894,0.604c0.026,0.981-0.026,1.433-0.01,2.841
				c0.007,0.564-0.133,0.646,0.257,0.941c0.132,0.1,0.367,0.24,0.938,0.309c0.609,0.073,1.855,0.093,3.025,0.097
				c0.015,0.906-0.001,1.393,0.055,2.767c0.017,0.428-0.155,0.651,0.113,0.945c0.091,0.099,0.253,0.24,0.646,0.309
				c0.67,0.117,2.463,0.098,3.367,0.095c4.262-0.014,8.381,0.06,12.624-0.013c0.3-0.005,0.612-0.011,0.87-0.041
				c0.646-0.075,0.837-0.41,0.83-0.555c-0.051-1.135,0.079-1.722,0.079-2.784c0-0.241-0.003-0.373-0.009-0.719l0.001-0.008
				c0.543-0.004,1.081-0.005,1.626-0.011c0.437-0.005,0.89-0.011,1.263-0.041c0.938-0.075,1.216-0.41,1.206-0.555
				c-0.075-1.135,0.114-1.722,0.115-2.784c0-0.241-0.004-0.373-0.013-0.719c0-0.02,0.003-0.042,0.008-0.065
				c0.932-0.029,1.864-0.06,2.8-0.106c0.652-0.032,1.329-0.069,1.887-0.253c1.401-0.463,1.816-2.535,1.802-3.43
				c-0.112-7.019,0.171-10.65,0.171-17.216C614.951,166.049,614.945,165.233,614.931,163.092z"/>
			<g>
				<path style="fill:#F7F7F7;" d="M580.3,164.784c-0.006-1.12,0.01-2.019,0-3.138c-0.001-0.134-0.01-0.498-0.022-0.612
					c-0.024-0.236-0.099-0.22-0.145-0.219c-0.345,0.008-0.494-0.001-0.982,0.022c-0.142,0.007-0.216-0.059-0.313,0.043
					c-0.033,0.035-0.08,0.097-0.103,0.247c-0.039,0.257-0.032,0.943-0.031,1.289c0.005,1.632-0.02,3.209,0.004,4.834
					c0.002,0.115,0.004,0.235,0.014,0.333c0.024,0.247,0.136,0.321,0.184,0.318c0.376-0.02,0.571,0.03,0.923,0.03
					c0.08,0,0.123-0.001,0.238-0.003c0.055-0.001,0.169,0.072,0.211-0.169c0.034-0.197,0.024-1.209,0.023-1.486
					C580.3,165.777,580.302,165.281,580.3,164.784z"/>
				<path style="fill:#F7F7F7;" d="M583.373,164.784c-0.006-1.12,0.01-2.019,0-3.138c-0.001-0.134-0.01-0.498-0.022-0.612
					c-0.024-0.236-0.099-0.22-0.145-0.219c-0.345,0.008-0.494-0.001-0.982,0.022c-0.142,0.007-0.216-0.059-0.313,0.043
					c-0.033,0.035-0.08,0.097-0.103,0.247c-0.039,0.257-0.033,0.943-0.031,1.289c0.005,1.632-0.02,3.209,0.004,4.834
					c0.002,0.115,0.004,0.235,0.014,0.333c0.025,0.247,0.136,0.321,0.184,0.318c0.376-0.02,0.571,0.03,0.923,0.03
					c0.08,0,0.124-0.001,0.238-0.003c0.055-0.001,0.169,0.072,0.211-0.169c0.034-0.197,0.024-1.209,0.023-1.486
					C583.374,165.777,583.376,165.281,583.373,164.784z"/>
				<path style="fill:#F7F7F7;" d="M586.377,164.784c-0.006-1.12,0.01-2.019,0-3.138c-0.001-0.134-0.01-0.498-0.022-0.612
					c-0.024-0.236-0.099-0.22-0.145-0.219c-0.345,0.008-0.494-0.001-0.982,0.022c-0.142,0.007-0.216-0.059-0.313,0.043
					c-0.033,0.035-0.08,0.097-0.103,0.247c-0.039,0.257-0.033,0.943-0.031,1.289c0.005,1.632-0.02,3.209,0.004,4.834
					c0.002,0.115,0.003,0.235,0.014,0.333c0.025,0.247,0.136,0.321,0.184,0.318c0.376-0.02,0.571,0.03,0.923,0.03
					c0.08,0,0.124-0.001,0.238-0.003c0.055-0.001,0.169,0.072,0.211-0.169c0.034-0.197,0.024-1.209,0.023-1.486
					C586.377,165.777,586.379,165.281,586.377,164.784z"/>
				<path style="fill:#F7F7F7;" d="M589.45,164.784c-0.006-1.12,0.01-2.019,0-3.138c-0.001-0.134-0.01-0.498-0.022-0.612
					c-0.024-0.236-0.099-0.22-0.145-0.219c-0.345,0.008-0.494-0.001-0.982,0.022c-0.142,0.007-0.216-0.059-0.313,0.043
					c-0.033,0.035-0.08,0.097-0.103,0.247c-0.039,0.257-0.032,0.943-0.031,1.289c0.005,1.632-0.02,3.209,0.004,4.834
					c0.002,0.115,0.004,0.235,0.014,0.333c0.024,0.247,0.136,0.321,0.184,0.318c0.376-0.02,0.571,0.03,0.923,0.03
					c0.08,0,0.124-0.001,0.239-0.003c0.055-0.001,0.169,0.072,0.211-0.169c0.034-0.197,0.024-1.209,0.023-1.486
					C589.451,165.777,589.453,165.281,589.45,164.784z"/>
				<path style="fill:#F7F7F7;" d="M592.593,164.784c-0.006-1.12,0.01-2.019,0-3.138c-0.001-0.134-0.01-0.498-0.022-0.612
					c-0.024-0.236-0.099-0.22-0.145-0.219c-0.345,0.008-0.494-0.001-0.982,0.022c-0.142,0.007-0.216-0.059-0.313,0.043
					c-0.033,0.035-0.08,0.097-0.103,0.247c-0.039,0.257-0.032,0.943-0.031,1.289c0.005,1.632-0.02,3.209,0.004,4.834
					c0.002,0.115,0.003,0.235,0.014,0.333c0.025,0.247,0.136,0.321,0.184,0.318c0.376-0.02,0.571,0.03,0.923,0.03
					c0.08,0,0.124-0.001,0.239-0.003c0.055-0.001,0.169,0.072,0.211-0.169c0.034-0.197,0.024-1.209,0.023-1.486
					C592.594,165.777,592.596,165.281,592.593,164.784z"/>
				<path style="fill:#F7F7F7;" d="M595.667,164.784c-0.006-1.12,0.01-2.019,0-3.138c-0.001-0.134-0.01-0.498-0.022-0.612
					c-0.024-0.236-0.099-0.22-0.145-0.219c-0.345,0.008-0.494-0.001-0.982,0.022c-0.142,0.007-0.216-0.059-0.313,0.043
					c-0.033,0.035-0.08,0.097-0.102,0.247c-0.039,0.257-0.033,0.943-0.031,1.289c0.005,1.632-0.02,3.209,0.004,4.834
					c0.002,0.115,0.004,0.235,0.014,0.333c0.024,0.247,0.136,0.321,0.184,0.318c0.376-0.02,0.571,0.03,0.923,0.03
					c0.08,0,0.124-0.001,0.238-0.003c0.055-0.001,0.169,0.072,0.211-0.169c0.034-0.197,0.024-1.209,0.023-1.486
					C595.667,165.777,595.669,165.281,595.667,164.784z"/>
				<path style="fill:#F7F7F7;" d="M598.67,164.784c-0.006-1.12,0.01-2.019,0-3.138c-0.001-0.134-0.01-0.498-0.022-0.612
					c-0.024-0.236-0.099-0.22-0.145-0.219c-0.345,0.008-0.494-0.001-0.982,0.022c-0.142,0.007-0.216-0.059-0.314,0.043
					c-0.033,0.035-0.08,0.097-0.102,0.247c-0.039,0.257-0.032,0.943-0.031,1.289c0.005,1.632-0.02,3.209,0.004,4.834
					c0.002,0.115,0.003,0.235,0.014,0.333c0.025,0.247,0.136,0.321,0.184,0.318c0.376-0.02,0.571,0.03,0.923,0.03
					c0.08,0,0.124-0.001,0.238-0.003c0.055-0.001,0.169,0.072,0.211-0.169c0.034-0.197,0.024-1.209,0.024-1.486
					C598.671,165.777,598.673,165.281,598.67,164.784z"/>
				<path style="fill:#F7F7F7;" d="M601.744,164.784c-0.006-1.12,0.01-2.019,0-3.138c-0.001-0.134-0.01-0.498-0.022-0.612
					c-0.024-0.236-0.099-0.22-0.145-0.219c-0.345,0.008-0.494-0.001-0.982,0.022c-0.142,0.007-0.216-0.059-0.313,0.043
					c-0.033,0.035-0.08,0.097-0.103,0.247c-0.039,0.257-0.033,0.943-0.031,1.289c0.005,1.632-0.02,3.209,0.004,4.834
					c0.002,0.115,0.003,0.235,0.014,0.333c0.025,0.247,0.136,0.321,0.184,0.318c0.376-0.02,0.571,0.03,0.923,0.03
					c0.08,0,0.124-0.001,0.239-0.003c0.055-0.001,0.169,0.072,0.211-0.169c0.034-0.197,0.024-1.209,0.023-1.486
					C601.744,165.777,601.746,165.281,601.744,164.784z"/>
				<path style="fill:#F7F7F7;" d="M604.835,164.799c-0.005-1.12,0.01-2.018,0.001-3.138c-0.002-0.134-0.01-0.498-0.022-0.613
					c-0.024-0.236-0.099-0.22-0.145-0.219c-0.345,0.008-0.494-0.001-0.982,0.022c-0.142,0.007-0.216-0.059-0.313,0.044
					c-0.033,0.035-0.08,0.097-0.103,0.247c-0.039,0.256-0.033,0.943-0.032,1.289c0.005,1.632-0.02,3.209,0.004,4.834
					c0.002,0.115,0.004,0.235,0.014,0.333c0.024,0.247,0.136,0.321,0.184,0.318c0.376-0.02,0.571,0.03,0.923,0.03
					c0.08,0,0.124-0.001,0.238-0.003c0.056-0.001,0.17,0.072,0.211-0.169c0.034-0.197,0.024-1.209,0.023-1.486
					C604.836,165.792,604.838,165.296,604.835,164.799z"/>
				<path style="fill:#F7F7F7;" d="M607.908,164.799c-0.006-1.12,0.01-2.018,0-3.138c-0.002-0.134-0.01-0.498-0.022-0.613
					c-0.024-0.236-0.099-0.22-0.145-0.219c-0.345,0.008-0.494-0.001-0.982,0.022c-0.142,0.007-0.216-0.059-0.313,0.044
					c-0.033,0.035-0.08,0.097-0.103,0.247c-0.039,0.256-0.033,0.943-0.032,1.289c0.005,1.632-0.02,3.209,0.004,4.834
					c0.002,0.115,0.004,0.235,0.014,0.333c0.025,0.247,0.136,0.321,0.184,0.318c0.376-0.02,0.571,0.03,0.923,0.03
					c0.08,0,0.124-0.001,0.238-0.003c0.056-0.001,0.17,0.072,0.211-0.169c0.034-0.197,0.024-1.209,0.023-1.486
					C607.909,165.792,607.911,165.296,607.908,164.799z"/>
				<path style="fill:#F7F7F7;" d="M610.912,164.799c-0.005-1.12,0.01-2.018,0-3.138c-0.002-0.134-0.01-0.498-0.022-0.613
					c-0.024-0.236-0.099-0.22-0.145-0.219c-0.345,0.008-0.494-0.001-0.982,0.022c-0.142,0.007-0.215-0.059-0.313,0.044
					c-0.033,0.035-0.08,0.097-0.103,0.247c-0.039,0.256-0.033,0.943-0.032,1.289c0.005,1.632-0.02,3.209,0.004,4.834
					c0.002,0.115,0.004,0.235,0.014,0.333c0.025,0.247,0.136,0.321,0.184,0.318c0.377-0.02,0.571,0.03,0.923,0.03
					c0.08,0,0.124-0.001,0.238-0.003c0.056-0.001,0.17,0.072,0.211-0.169c0.034-0.197,0.024-1.209,0.023-1.486
					C610.912,165.792,610.914,165.296,610.912,164.799z"/>
			</g>
		</g>
		<g>
			<path style="fill:#5E5E5E;" d="M617.346,275.758c-0.007-1.484,0.455-4.533-1.076-5.64c-1.253-0.907-7.682-0.653-9.443-0.627
				c-3.158,0.046-6.315,0-9.471,0.067c-7.121,0.151-12.829-0.263-19.943-0.008c-0.853,0.031-3.166,0.275-3.893,0.584
				c-1.501,0.636-1.048,2.844-1.041,4.071c0.053,9.241,0.022,16.822-0.207,26.064c-0.094,3.785-0.377,5.772,0.275,8.382
				c0.221,0.884,0.615,2.132,1.572,2.74c1.631,1.036,5.995,0.87,8.195,0.844c10.372-0.127,20.397,0.534,30.724-0.116
				c0.731-0.046,1.491-0.098,2.117-0.363c1.572-0.664,2.037-3.636,2.021-4.92c-0.125-10.069,0.192-15.276,0.192-24.696
				C617.367,280.001,617.361,278.83,617.346,275.758z"/>
			<path style="fill:#303030;" d="M614.931,276.056c-0.007-1.035,0.406-3.16-0.959-3.932c-1.117-0.632-6.847-0.455-8.417-0.437
				c-2.814,0.032-5.628,0-8.442,0.047c-6.347,0.105-11.435-0.184-17.775-0.006c-0.76,0.021-2.822,0.192-3.47,0.407
				c-1.338,0.444-0.934,1.983-0.928,2.838c0.047,6.443,0.02,11.727-0.184,18.17c-0.084,2.638-0.336,4.024,0.245,5.844
				c0.197,0.616,0.548,1.486,1.401,1.91c0.975,0.485,3.045,0.592,4.894,0.604c0.026,0.981-0.026,1.433-0.01,2.841
				c0.007,0.564-0.133,0.646,0.257,0.941c0.132,0.1,0.367,0.24,0.938,0.309c0.609,0.073,1.855,0.093,3.025,0.097
				c0.015,0.906-0.001,1.393,0.055,2.767c0.017,0.428-0.155,0.651,0.113,0.945c0.091,0.1,0.253,0.24,0.646,0.309
				c0.67,0.117,2.463,0.098,3.367,0.095c4.262-0.014,8.381,0.06,12.624-0.013c0.3-0.005,0.612-0.011,0.87-0.041
				c0.646-0.075,0.837-0.41,0.83-0.555c-0.051-1.135,0.079-1.722,0.079-2.784c0-0.241-0.003-0.373-0.009-0.719l0.001-0.008
				c0.543-0.004,1.081-0.004,1.626-0.011c0.437-0.005,0.89-0.011,1.263-0.041c0.938-0.075,1.216-0.41,1.206-0.555
				c-0.075-1.135,0.114-1.722,0.115-2.784c0-0.241-0.004-0.373-0.013-0.719c0-0.02,0.003-0.042,0.008-0.065
				c0.932-0.029,1.864-0.06,2.8-0.106c0.652-0.032,1.329-0.069,1.887-0.253c1.401-0.463,1.816-2.535,1.802-3.43
				c-0.112-7.019,0.171-10.65,0.171-17.216C614.951,279.014,614.945,278.198,614.931,276.056z"/>
			<g>
				<path style="fill:#F7F7F7;" d="M580.3,277.749c-0.006-1.12,0.01-2.019,0-3.138c-0.001-0.134-0.01-0.498-0.022-0.612
					c-0.024-0.236-0.099-0.22-0.145-0.219c-0.345,0.008-0.494-0.001-0.982,0.022c-0.142,0.007-0.216-0.059-0.313,0.043
					c-0.033,0.035-0.08,0.097-0.103,0.247c-0.039,0.257-0.032,0.943-0.031,1.289c0.005,1.632-0.02,3.209,0.004,4.834
					c0.002,0.115,0.004,0.234,0.014,0.333c0.024,0.247,0.136,0.321,0.184,0.318c0.376-0.02,0.571,0.03,0.923,0.03
					c0.08,0,0.123-0.001,0.238-0.003c0.055-0.001,0.169,0.072,0.211-0.169c0.034-0.197,0.024-1.209,0.023-1.486
					C580.3,278.742,580.302,278.246,580.3,277.749z"/>
				<path style="fill:#F7F7F7;" d="M583.373,277.749c-0.006-1.12,0.01-2.019,0-3.138c-0.001-0.134-0.01-0.498-0.022-0.612
					c-0.024-0.236-0.099-0.22-0.145-0.219c-0.345,0.008-0.494-0.001-0.982,0.022c-0.142,0.007-0.216-0.059-0.313,0.043
					c-0.033,0.035-0.08,0.097-0.103,0.247c-0.039,0.257-0.033,0.943-0.031,1.289c0.005,1.632-0.02,3.209,0.004,4.834
					c0.002,0.115,0.004,0.234,0.014,0.333c0.025,0.247,0.136,0.321,0.184,0.318c0.376-0.02,0.571,0.03,0.923,0.03
					c0.08,0,0.124-0.001,0.238-0.003c0.055-0.001,0.169,0.072,0.211-0.169c0.034-0.197,0.024-1.209,0.023-1.486
					C583.374,278.742,583.376,278.246,583.373,277.749z"/>
				<path style="fill:#F7F7F7;" d="M586.377,277.749c-0.006-1.12,0.01-2.019,0-3.138c-0.001-0.134-0.01-0.498-0.022-0.612
					c-0.024-0.236-0.099-0.22-0.145-0.219c-0.345,0.008-0.494-0.001-0.982,0.022c-0.142,0.007-0.216-0.059-0.313,0.043
					c-0.033,0.035-0.08,0.097-0.103,0.247c-0.039,0.257-0.033,0.943-0.031,1.289c0.005,1.632-0.02,3.209,0.004,4.834
					c0.002,0.115,0.003,0.234,0.014,0.333c0.025,0.247,0.136,0.321,0.184,0.318c0.376-0.02,0.571,0.03,0.923,0.03
					c0.08,0,0.124-0.001,0.238-0.003c0.055-0.001,0.169,0.072,0.211-0.169c0.034-0.197,0.024-1.209,0.023-1.486
					C586.377,278.742,586.379,278.246,586.377,277.749z"/>
				<path style="fill:#F7F7F7;" d="M589.45,277.749c-0.006-1.12,0.01-2.019,0-3.138c-0.001-0.134-0.01-0.498-0.022-0.612
					c-0.024-0.236-0.099-0.22-0.145-0.219c-0.345,0.008-0.494-0.001-0.982,0.022c-0.142,0.007-0.216-0.059-0.313,0.043
					c-0.033,0.035-0.08,0.097-0.103,0.247c-0.039,0.257-0.032,0.943-0.031,1.289c0.005,1.632-0.02,3.209,0.004,4.834
					c0.002,0.115,0.004,0.234,0.014,0.333c0.024,0.247,0.136,0.321,0.184,0.318c0.376-0.02,0.571,0.03,0.923,0.03
					c0.08,0,0.124-0.001,0.239-0.003c0.055-0.001,0.169,0.072,0.211-0.169c0.034-0.197,0.024-1.209,0.023-1.486
					C589.451,278.742,589.453,278.246,589.45,277.749z"/>
				<path style="fill:#F7F7F7;" d="M592.593,277.749c-0.006-1.12,0.01-2.019,0-3.138c-0.001-0.134-0.01-0.498-0.022-0.612
					c-0.024-0.236-0.099-0.22-0.145-0.219c-0.345,0.008-0.494-0.001-0.982,0.022c-0.142,0.007-0.216-0.059-0.313,0.043
					c-0.033,0.035-0.08,0.097-0.103,0.247c-0.039,0.257-0.032,0.943-0.031,1.289c0.005,1.632-0.02,3.209,0.004,4.834
					c0.002,0.115,0.003,0.234,0.014,0.333c0.025,0.247,0.136,0.321,0.184,0.318c0.376-0.02,0.571,0.03,0.923,0.03
					c0.08,0,0.124-0.001,0.239-0.003c0.055-0.001,0.169,0.072,0.211-0.169c0.034-0.197,0.024-1.209,0.023-1.486
					C592.594,278.742,592.596,278.246,592.593,277.749z"/>
				<path style="fill:#F7F7F7;" d="M595.667,277.749c-0.006-1.12,0.01-2.019,0-3.138c-0.001-0.134-0.01-0.498-0.022-0.612
					c-0.024-0.236-0.099-0.22-0.145-0.219c-0.345,0.008-0.494-0.001-0.982,0.022c-0.142,0.007-0.216-0.059-0.313,0.043
					c-0.033,0.035-0.08,0.097-0.102,0.247c-0.039,0.257-0.033,0.943-0.031,1.289c0.005,1.632-0.02,3.209,0.004,4.834
					c0.002,0.115,0.004,0.234,0.014,0.333c0.024,0.247,0.136,0.321,0.184,0.318c0.376-0.02,0.571,0.03,0.923,0.03
					c0.08,0,0.124-0.001,0.238-0.003c0.055-0.001,0.169,0.072,0.211-0.169c0.034-0.197,0.024-1.209,0.023-1.486
					C595.667,278.742,595.669,278.246,595.667,277.749z"/>
				<path style="fill:#F7F7F7;" d="M598.67,277.749c-0.006-1.12,0.01-2.019,0-3.138c-0.001-0.134-0.01-0.498-0.022-0.612
					c-0.024-0.236-0.099-0.22-0.145-0.219c-0.345,0.008-0.494-0.001-0.982,0.022c-0.142,0.007-0.216-0.059-0.314,0.043
					c-0.033,0.035-0.08,0.097-0.102,0.247c-0.039,0.257-0.032,0.943-0.031,1.289c0.005,1.632-0.02,3.209,0.004,4.834
					c0.002,0.115,0.003,0.234,0.014,0.333c0.025,0.247,0.136,0.321,0.184,0.318c0.376-0.02,0.571,0.03,0.923,0.03
					c0.08,0,0.124-0.001,0.238-0.003c0.055-0.001,0.169,0.072,0.211-0.169c0.034-0.197,0.024-1.209,0.024-1.486
					C598.671,278.742,598.673,278.246,598.67,277.749z"/>
				<path style="fill:#F7F7F7;" d="M601.744,277.749c-0.006-1.12,0.01-2.019,0-3.138c-0.001-0.134-0.01-0.498-0.022-0.612
					c-0.024-0.236-0.099-0.22-0.145-0.219c-0.345,0.008-0.494-0.001-0.982,0.022c-0.142,0.007-0.216-0.059-0.313,0.043
					c-0.033,0.035-0.08,0.097-0.103,0.247c-0.039,0.257-0.033,0.943-0.031,1.289c0.005,1.632-0.02,3.209,0.004,4.834
					c0.002,0.115,0.003,0.234,0.014,0.333c0.025,0.247,0.136,0.321,0.184,0.318c0.376-0.02,0.571,0.03,0.923,0.03
					c0.08,0,0.124-0.001,0.239-0.003c0.055-0.001,0.169,0.072,0.211-0.169c0.034-0.197,0.024-1.209,0.023-1.486
					C601.744,278.742,601.746,278.246,601.744,277.749z"/>
				<path style="fill:#F7F7F7;" d="M604.835,277.764c-0.005-1.12,0.01-2.018,0.001-3.138c-0.002-0.134-0.01-0.498-0.022-0.613
					c-0.024-0.236-0.099-0.22-0.145-0.219c-0.345,0.008-0.494-0.001-0.982,0.022c-0.142,0.007-0.216-0.059-0.313,0.043
					c-0.033,0.035-0.08,0.097-0.103,0.247c-0.039,0.257-0.033,0.943-0.032,1.289c0.005,1.632-0.02,3.209,0.004,4.834
					c0.002,0.115,0.004,0.235,0.014,0.333c0.024,0.247,0.136,0.321,0.184,0.318c0.376-0.02,0.571,0.03,0.923,0.03
					c0.08,0,0.124-0.001,0.238-0.003c0.056-0.001,0.17,0.072,0.211-0.169c0.034-0.197,0.024-1.209,0.023-1.486
					C604.836,278.757,604.838,278.261,604.835,277.764z"/>
				<path style="fill:#F7F7F7;" d="M607.908,277.764c-0.006-1.12,0.01-2.018,0-3.138c-0.002-0.134-0.01-0.498-0.022-0.613
					c-0.024-0.236-0.099-0.22-0.145-0.219c-0.345,0.008-0.494-0.001-0.982,0.022c-0.142,0.007-0.216-0.059-0.313,0.043
					c-0.033,0.035-0.08,0.097-0.103,0.247c-0.039,0.257-0.033,0.943-0.032,1.289c0.005,1.632-0.02,3.209,0.004,4.834
					c0.002,0.115,0.004,0.235,0.014,0.333c0.025,0.247,0.136,0.321,0.184,0.318c0.376-0.02,0.571,0.03,0.923,0.03
					c0.08,0,0.124-0.001,0.238-0.003c0.056-0.001,0.17,0.072,0.211-0.169c0.034-0.197,0.024-1.209,0.023-1.486
					C607.909,278.757,607.911,278.261,607.908,277.764z"/>
				<path style="fill:#F7F7F7;" d="M610.912,277.764c-0.005-1.12,0.01-2.018,0-3.138c-0.002-0.134-0.01-0.498-0.022-0.613
					c-0.024-0.236-0.099-0.22-0.145-0.219c-0.345,0.008-0.494-0.001-0.982,0.022c-0.142,0.007-0.215-0.059-0.313,0.043
					c-0.033,0.035-0.08,0.097-0.103,0.247c-0.039,0.257-0.033,0.943-0.032,1.289c0.005,1.632-0.02,3.209,0.004,4.834
					c0.002,0.115,0.004,0.235,0.014,0.333c0.025,0.247,0.136,0.321,0.184,0.318c0.377-0.02,0.571,0.03,0.923,0.03
					c0.08,0,0.124-0.001,0.238-0.003c0.056-0.001,0.17,0.072,0.211-0.169c0.034-0.197,0.024-1.209,0.023-1.486
					C610.912,278.757,610.914,278.261,610.912,277.764z"/>
			</g>
		</g>
		<g>
			<path style="fill:#5E5E5E;" d="M617.346,332.055c-0.007-1.484,0.455-4.533-1.076-5.64c-1.253-0.907-7.682-0.653-9.443-0.627
				c-3.158,0.046-6.315,0-9.471,0.067c-7.121,0.151-12.829-0.263-19.943-0.008c-0.853,0.031-3.166,0.275-3.893,0.584
				c-1.501,0.636-1.048,2.844-1.041,4.071c0.053,9.241,0.022,16.822-0.207,26.064c-0.094,3.785-0.377,5.772,0.275,8.382
				c0.221,0.884,0.615,2.132,1.572,2.741c1.631,1.036,5.995,0.87,8.195,0.844c10.372-0.127,20.397,0.534,30.724-0.116
				c0.731-0.046,1.491-0.098,2.117-0.363c1.572-0.664,2.037-3.636,2.021-4.92c-0.125-10.069,0.192-15.276,0.192-24.696
				C617.367,336.297,617.361,335.127,617.346,332.055z"/>
			<path style="fill:#303030;" d="M614.931,332.353c-0.007-1.035,0.406-3.16-0.959-3.932c-1.117-0.632-6.847-0.455-8.417-0.437
				c-2.814,0.032-5.628,0-8.442,0.046c-6.347,0.105-11.435-0.184-17.775-0.006c-0.76,0.021-2.822,0.192-3.47,0.407
				c-1.338,0.444-0.934,1.983-0.928,2.838c0.047,6.443,0.02,11.727-0.184,18.17c-0.084,2.638-0.336,4.024,0.245,5.844
				c0.197,0.616,0.548,1.486,1.401,1.91c0.975,0.485,3.045,0.592,4.894,0.604c0.026,0.982-0.026,1.433-0.01,2.841
				c0.007,0.564-0.133,0.646,0.257,0.941c0.132,0.1,0.367,0.24,0.938,0.309c0.609,0.073,1.855,0.093,3.025,0.097
				c0.015,0.906-0.001,1.393,0.055,2.767c0.017,0.428-0.155,0.651,0.113,0.945c0.091,0.1,0.253,0.24,0.646,0.309
				c0.67,0.117,2.463,0.098,3.367,0.095c4.262-0.014,8.381,0.06,12.624-0.013c0.3-0.005,0.612-0.011,0.87-0.041
				c0.646-0.075,0.837-0.41,0.83-0.555c-0.051-1.135,0.079-1.722,0.079-2.784c0-0.241-0.003-0.373-0.009-0.719l0.001-0.008
				c0.543-0.004,1.081-0.004,1.626-0.011c0.437-0.005,0.89-0.011,1.263-0.041c0.938-0.075,1.216-0.41,1.206-0.555
				c-0.075-1.135,0.114-1.722,0.115-2.784c0-0.241-0.004-0.373-0.013-0.719c0-0.02,0.003-0.042,0.008-0.065
				c0.932-0.029,1.864-0.06,2.8-0.106c0.652-0.032,1.329-0.069,1.887-0.253c1.401-0.463,1.816-2.535,1.802-3.43
				c-0.112-7.019,0.171-10.65,0.171-17.216C614.951,335.31,614.945,334.495,614.931,332.353z"/>
			<g>
				<path style="fill:#F7F7F7;" d="M580.3,334.046c-0.006-1.12,0.01-2.018,0-3.138c-0.001-0.134-0.01-0.498-0.022-0.613
					c-0.024-0.236-0.099-0.22-0.145-0.219c-0.345,0.008-0.494-0.001-0.982,0.022c-0.142,0.007-0.216-0.059-0.313,0.044
					c-0.033,0.035-0.08,0.097-0.103,0.247c-0.039,0.256-0.032,0.943-0.031,1.289c0.005,1.632-0.02,3.209,0.004,4.834
					c0.002,0.115,0.004,0.235,0.014,0.333c0.024,0.247,0.136,0.321,0.184,0.318c0.376-0.02,0.571,0.03,0.923,0.03
					c0.08,0,0.123-0.001,0.238-0.003c0.055-0.001,0.169,0.072,0.211-0.169c0.034-0.197,0.024-1.209,0.023-1.486
					C580.3,335.039,580.302,334.542,580.3,334.046z"/>
				<path style="fill:#F7F7F7;" d="M583.373,334.046c-0.006-1.12,0.01-2.018,0-3.138c-0.001-0.134-0.01-0.498-0.022-0.613
					c-0.024-0.236-0.099-0.22-0.145-0.219c-0.345,0.008-0.494-0.001-0.982,0.022c-0.142,0.007-0.216-0.059-0.313,0.044
					c-0.033,0.035-0.08,0.097-0.103,0.247c-0.039,0.256-0.033,0.943-0.031,1.289c0.005,1.632-0.02,3.209,0.004,4.834
					c0.002,0.115,0.004,0.235,0.014,0.333c0.025,0.247,0.136,0.321,0.184,0.318c0.376-0.02,0.571,0.03,0.923,0.03
					c0.08,0,0.124-0.001,0.238-0.003c0.055-0.001,0.169,0.072,0.211-0.169c0.034-0.197,0.024-1.209,0.023-1.486
					C583.374,335.039,583.376,334.542,583.373,334.046z"/>
				<path style="fill:#F7F7F7;" d="M586.377,334.046c-0.006-1.12,0.01-2.018,0-3.138c-0.001-0.134-0.01-0.498-0.022-0.613
					c-0.024-0.236-0.099-0.22-0.145-0.219c-0.345,0.008-0.494-0.001-0.982,0.022c-0.142,0.007-0.216-0.059-0.313,0.044
					c-0.033,0.035-0.08,0.097-0.103,0.247c-0.039,0.256-0.033,0.943-0.031,1.289c0.005,1.632-0.02,3.209,0.004,4.834
					c0.002,0.115,0.003,0.235,0.014,0.333c0.025,0.247,0.136,0.321,0.184,0.318c0.376-0.02,0.571,0.03,0.923,0.03
					c0.08,0,0.124-0.001,0.238-0.003c0.055-0.001,0.169,0.072,0.211-0.169c0.034-0.197,0.024-1.209,0.023-1.486
					C586.377,335.039,586.379,334.542,586.377,334.046z"/>
				<path style="fill:#F7F7F7;" d="M589.45,334.046c-0.006-1.12,0.01-2.018,0-3.138c-0.001-0.134-0.01-0.498-0.022-0.613
					c-0.024-0.236-0.099-0.22-0.145-0.219c-0.345,0.008-0.494-0.001-0.982,0.022c-0.142,0.007-0.216-0.059-0.313,0.044
					c-0.033,0.035-0.08,0.097-0.103,0.247c-0.039,0.256-0.032,0.943-0.031,1.289c0.005,1.632-0.02,3.209,0.004,4.834
					c0.002,0.115,0.004,0.235,0.014,0.333c0.024,0.247,0.136,0.321,0.184,0.318c0.376-0.02,0.571,0.03,0.923,0.03
					c0.08,0,0.124-0.001,0.239-0.003c0.055-0.001,0.169,0.072,0.211-0.169c0.034-0.197,0.024-1.209,0.023-1.486
					C589.451,335.039,589.453,334.542,589.45,334.046z"/>
				<path style="fill:#F7F7F7;" d="M592.593,334.046c-0.006-1.12,0.01-2.018,0-3.138c-0.001-0.134-0.01-0.498-0.022-0.613
					c-0.024-0.236-0.099-0.22-0.145-0.219c-0.345,0.008-0.494-0.001-0.982,0.022c-0.142,0.007-0.216-0.059-0.313,0.044
					c-0.033,0.035-0.08,0.097-0.103,0.247c-0.039,0.256-0.032,0.943-0.031,1.289c0.005,1.632-0.02,3.209,0.004,4.834
					c0.002,0.115,0.003,0.235,0.014,0.333c0.025,0.247,0.136,0.321,0.184,0.318c0.376-0.02,0.571,0.03,0.923,0.03
					c0.08,0,0.124-0.001,0.239-0.003c0.055-0.001,0.169,0.072,0.211-0.169c0.034-0.197,0.024-1.209,0.023-1.486
					C592.594,335.039,592.596,334.542,592.593,334.046z"/>
				<path style="fill:#F7F7F7;" d="M595.667,334.046c-0.006-1.12,0.01-2.018,0-3.138c-0.001-0.134-0.01-0.498-0.022-0.613
					c-0.024-0.236-0.099-0.22-0.145-0.219c-0.345,0.008-0.494-0.001-0.982,0.022c-0.142,0.007-0.216-0.059-0.313,0.044
					c-0.033,0.035-0.08,0.097-0.102,0.247c-0.039,0.256-0.033,0.943-0.031,1.289c0.005,1.632-0.02,3.209,0.004,4.834
					c0.002,0.115,0.004,0.235,0.014,0.333c0.024,0.247,0.136,0.321,0.184,0.318c0.376-0.02,0.571,0.03,0.923,0.03
					c0.08,0,0.124-0.001,0.238-0.003c0.055-0.001,0.169,0.072,0.211-0.169c0.034-0.197,0.024-1.209,0.023-1.486
					C595.667,335.039,595.669,334.542,595.667,334.046z"/>
				<path style="fill:#F7F7F7;" d="M598.67,334.046c-0.006-1.12,0.01-2.018,0-3.138c-0.001-0.134-0.01-0.498-0.022-0.613
					c-0.024-0.236-0.099-0.22-0.145-0.219c-0.345,0.008-0.494-0.001-0.982,0.022c-0.142,0.007-0.216-0.059-0.314,0.044
					c-0.033,0.035-0.08,0.097-0.102,0.247c-0.039,0.256-0.032,0.943-0.031,1.289c0.005,1.632-0.02,3.209,0.004,4.834
					c0.002,0.115,0.003,0.235,0.014,0.333c0.025,0.247,0.136,0.321,0.184,0.318c0.376-0.02,0.571,0.03,0.923,0.03
					c0.08,0,0.124-0.001,0.238-0.003c0.055-0.001,0.169,0.072,0.211-0.169c0.034-0.197,0.024-1.209,0.024-1.486
					C598.671,335.039,598.673,334.542,598.67,334.046z"/>
				<path style="fill:#F7F7F7;" d="M601.744,334.046c-0.006-1.12,0.01-2.018,0-3.138c-0.001-0.134-0.01-0.498-0.022-0.613
					c-0.024-0.236-0.099-0.22-0.145-0.219c-0.345,0.008-0.494-0.001-0.982,0.022c-0.142,0.007-0.216-0.059-0.313,0.044
					c-0.033,0.035-0.08,0.097-0.103,0.247c-0.039,0.256-0.033,0.943-0.031,1.289c0.005,1.632-0.02,3.209,0.004,4.834
					c0.002,0.115,0.003,0.235,0.014,0.333c0.025,0.247,0.136,0.321,0.184,0.318c0.376-0.02,0.571,0.03,0.923,0.03
					c0.08,0,0.124-0.001,0.239-0.003c0.055-0.001,0.169,0.072,0.211-0.169c0.034-0.197,0.024-1.209,0.023-1.486
					C601.744,335.039,601.746,334.542,601.744,334.046z"/>
				<path style="fill:#F7F7F7;" d="M604.835,334.06c-0.005-1.12,0.01-2.018,0.001-3.138c-0.002-0.134-0.01-0.498-0.022-0.612
					c-0.024-0.236-0.099-0.22-0.145-0.219c-0.345,0.008-0.494-0.001-0.982,0.022c-0.142,0.007-0.216-0.059-0.313,0.043
					c-0.033,0.035-0.08,0.097-0.103,0.247c-0.039,0.257-0.033,0.943-0.032,1.289c0.005,1.632-0.02,3.209,0.004,4.834
					c0.002,0.115,0.004,0.234,0.014,0.333c0.024,0.247,0.136,0.321,0.184,0.318c0.376-0.02,0.571,0.03,0.923,0.03
					c0.08,0,0.124-0.001,0.238-0.003c0.056-0.001,0.17,0.072,0.211-0.169c0.034-0.197,0.024-1.209,0.023-1.486
					C604.836,335.054,604.838,334.557,604.835,334.06z"/>
				<path style="fill:#F7F7F7;" d="M607.908,334.06c-0.006-1.12,0.01-2.018,0-3.138c-0.002-0.134-0.01-0.498-0.022-0.612
					c-0.024-0.236-0.099-0.22-0.145-0.219c-0.345,0.008-0.494-0.001-0.982,0.022c-0.142,0.007-0.216-0.059-0.313,0.043
					c-0.033,0.035-0.08,0.097-0.103,0.247c-0.039,0.257-0.033,0.943-0.032,1.289c0.005,1.632-0.02,3.209,0.004,4.834
					c0.002,0.115,0.004,0.234,0.014,0.333c0.025,0.247,0.136,0.321,0.184,0.318c0.376-0.02,0.571,0.03,0.923,0.03
					c0.08,0,0.124-0.001,0.238-0.003c0.056-0.001,0.17,0.072,0.211-0.169c0.034-0.197,0.024-1.209,0.023-1.486
					C607.909,335.054,607.911,334.557,607.908,334.06z"/>
				<path style="fill:#F7F7F7;" d="M610.912,334.06c-0.005-1.12,0.01-2.018,0-3.138c-0.002-0.134-0.01-0.498-0.022-0.612
					c-0.024-0.236-0.099-0.22-0.145-0.219c-0.345,0.008-0.494-0.001-0.982,0.022c-0.142,0.007-0.215-0.059-0.313,0.043
					c-0.033,0.035-0.08,0.097-0.103,0.247c-0.039,0.257-0.033,0.943-0.032,1.289c0.005,1.632-0.02,3.209,0.004,4.834
					c0.002,0.115,0.004,0.234,0.014,0.333c0.025,0.247,0.136,0.321,0.184,0.318c0.377-0.02,0.571,0.03,0.923,0.03
					c0.08,0,0.124-0.001,0.238-0.003c0.056-0.001,0.17,0.072,0.211-0.169c0.034-0.197,0.024-1.209,0.023-1.486
					C610.912,335.054,610.914,334.557,610.912,334.06z"/>
			</g>
		</g>
		<g>
			<path style="fill:#5E5E5E;" d="M617.346,386.595c-0.007-1.484,0.455-4.533-1.076-5.64c-1.253-0.907-7.682-0.653-9.443-0.627
				c-3.158,0.046-6.315,0-9.471,0.067c-7.121,0.151-12.829-0.263-19.943-0.008c-0.853,0.031-3.166,0.275-3.893,0.584
				c-1.501,0.636-1.048,2.844-1.041,4.071c0.053,9.241,0.022,16.822-0.207,26.064c-0.094,3.785-0.377,5.772,0.275,8.382
				c0.221,0.884,0.615,2.132,1.572,2.74c1.631,1.036,5.995,0.87,8.195,0.844c10.372-0.127,20.397,0.534,30.724-0.116
				c0.731-0.046,1.491-0.098,2.117-0.363c1.572-0.664,2.037-3.636,2.021-4.92c-0.125-10.069,0.192-15.276,0.192-24.696
				C617.367,390.837,617.361,389.667,617.346,386.595z"/>
			<path style="fill:#303030;" d="M614.931,386.893c-0.007-1.035,0.406-3.16-0.959-3.932c-1.117-0.632-6.847-0.455-8.417-0.437
				c-2.814,0.032-5.628,0-8.442,0.047c-6.347,0.105-11.435-0.184-17.775-0.006c-0.76,0.021-2.822,0.192-3.47,0.407
				c-1.338,0.444-0.934,1.983-0.928,2.838c0.047,6.443,0.02,11.728-0.184,18.17c-0.084,2.638-0.336,4.024,0.245,5.844
				c0.197,0.616,0.548,1.486,1.401,1.91c0.975,0.485,3.045,0.592,4.894,0.604c0.026,0.981-0.026,1.432-0.01,2.841
				c0.007,0.564-0.133,0.646,0.257,0.941c0.132,0.1,0.367,0.24,0.938,0.309c0.609,0.073,1.855,0.093,3.025,0.097
				c0.015,0.906-0.001,1.393,0.055,2.767c0.017,0.428-0.155,0.651,0.113,0.945c0.091,0.1,0.253,0.24,0.646,0.309
				c0.67,0.117,2.463,0.098,3.367,0.095c4.262-0.014,8.381,0.06,12.624-0.013c0.3-0.005,0.612-0.011,0.87-0.041
				c0.646-0.075,0.837-0.41,0.83-0.555c-0.051-1.135,0.079-1.722,0.079-2.784c0-0.241-0.003-0.373-0.009-0.719l0.001-0.008
				c0.543-0.004,1.081-0.004,1.626-0.011c0.437-0.005,0.89-0.011,1.263-0.041c0.938-0.075,1.216-0.41,1.206-0.555
				c-0.075-1.135,0.114-1.722,0.115-2.784c0-0.241-0.004-0.373-0.013-0.72c0-0.02,0.003-0.042,0.008-0.065
				c0.932-0.029,1.864-0.06,2.8-0.106c0.652-0.032,1.329-0.069,1.887-0.253c1.401-0.463,1.816-2.535,1.802-3.43
				c-0.112-7.019,0.171-10.65,0.171-17.216C614.951,389.851,614.945,389.035,614.931,386.893z"/>
			<g>
				<path style="fill:#F7F7F7;" d="M580.3,388.586c-0.006-1.12,0.01-2.019,0-3.138c-0.001-0.134-0.01-0.498-0.022-0.613
					c-0.024-0.236-0.099-0.22-0.145-0.219c-0.345,0.008-0.494-0.001-0.982,0.022c-0.142,0.007-0.216-0.059-0.313,0.043
					c-0.033,0.035-0.08,0.097-0.103,0.247c-0.039,0.257-0.032,0.943-0.031,1.289c0.005,1.632-0.02,3.209,0.004,4.834
					c0.002,0.115,0.004,0.234,0.014,0.333c0.024,0.247,0.136,0.321,0.184,0.318c0.376-0.02,0.571,0.03,0.923,0.03
					c0.08,0,0.123-0.001,0.238-0.003c0.055-0.001,0.169,0.072,0.211-0.169c0.034-0.197,0.024-1.209,0.023-1.486
					C580.3,389.579,580.302,389.082,580.3,388.586z"/>
				<path style="fill:#F7F7F7;" d="M583.373,388.586c-0.006-1.12,0.01-2.019,0-3.138c-0.001-0.134-0.01-0.498-0.022-0.613
					c-0.024-0.236-0.099-0.22-0.145-0.219c-0.345,0.008-0.494-0.001-0.982,0.022c-0.142,0.007-0.216-0.059-0.313,0.043
					c-0.033,0.035-0.08,0.097-0.103,0.247c-0.039,0.257-0.033,0.943-0.031,1.289c0.005,1.632-0.02,3.209,0.004,4.834
					c0.002,0.115,0.004,0.234,0.014,0.333c0.025,0.247,0.136,0.321,0.184,0.318c0.376-0.02,0.571,0.03,0.923,0.03
					c0.08,0,0.124-0.001,0.238-0.003c0.055-0.001,0.169,0.072,0.211-0.169c0.034-0.197,0.024-1.209,0.023-1.486
					C583.374,389.579,583.376,389.082,583.373,388.586z"/>
				<path style="fill:#F7F7F7;" d="M586.377,388.586c-0.006-1.12,0.01-2.019,0-3.138c-0.001-0.134-0.01-0.498-0.022-0.613
					c-0.024-0.236-0.099-0.22-0.145-0.219c-0.345,0.008-0.494-0.001-0.982,0.022c-0.142,0.007-0.216-0.059-0.313,0.043
					c-0.033,0.035-0.08,0.097-0.103,0.247c-0.039,0.257-0.033,0.943-0.031,1.289c0.005,1.632-0.02,3.209,0.004,4.834
					c0.002,0.115,0.003,0.234,0.014,0.333c0.025,0.247,0.136,0.321,0.184,0.318c0.376-0.02,0.571,0.03,0.923,0.03
					c0.08,0,0.124-0.001,0.238-0.003c0.055-0.001,0.169,0.072,0.211-0.169c0.034-0.197,0.024-1.209,0.023-1.486
					C586.377,389.579,586.379,389.082,586.377,388.586z"/>
				<path style="fill:#F7F7F7;" d="M589.45,388.586c-0.006-1.12,0.01-2.019,0-3.138c-0.001-0.134-0.01-0.498-0.022-0.613
					c-0.024-0.236-0.099-0.22-0.145-0.219c-0.345,0.008-0.494-0.001-0.982,0.022c-0.142,0.007-0.216-0.059-0.313,0.043
					c-0.033,0.035-0.08,0.097-0.103,0.247c-0.039,0.257-0.032,0.943-0.031,1.289c0.005,1.632-0.02,3.209,0.004,4.834
					c0.002,0.115,0.004,0.234,0.014,0.333c0.024,0.247,0.136,0.321,0.184,0.318c0.376-0.02,0.571,0.03,0.923,0.03
					c0.08,0,0.124-0.001,0.239-0.003c0.055-0.001,0.169,0.072,0.211-0.169c0.034-0.197,0.024-1.209,0.023-1.486
					C589.451,389.579,589.453,389.082,589.45,388.586z"/>
				<path style="fill:#F7F7F7;" d="M592.593,388.586c-0.006-1.12,0.01-2.019,0-3.138c-0.001-0.134-0.01-0.498-0.022-0.613
					c-0.024-0.236-0.099-0.22-0.145-0.219c-0.345,0.008-0.494-0.001-0.982,0.022c-0.142,0.007-0.216-0.059-0.313,0.043
					c-0.033,0.035-0.08,0.097-0.103,0.247c-0.039,0.257-0.032,0.943-0.031,1.289c0.005,1.632-0.02,3.209,0.004,4.834
					c0.002,0.115,0.003,0.234,0.014,0.333c0.025,0.247,0.136,0.321,0.184,0.318c0.376-0.02,0.571,0.03,0.923,0.03
					c0.08,0,0.124-0.001,0.239-0.003c0.055-0.001,0.169,0.072,0.211-0.169c0.034-0.197,0.024-1.209,0.023-1.486
					C592.594,389.579,592.596,389.082,592.593,388.586z"/>
				<path style="fill:#F7F7F7;" d="M595.667,388.586c-0.006-1.12,0.01-2.019,0-3.138c-0.001-0.134-0.01-0.498-0.022-0.613
					c-0.024-0.236-0.099-0.22-0.145-0.219c-0.345,0.008-0.494-0.001-0.982,0.022c-0.142,0.007-0.216-0.059-0.313,0.043
					c-0.033,0.035-0.08,0.097-0.102,0.247c-0.039,0.257-0.033,0.943-0.031,1.289c0.005,1.632-0.02,3.209,0.004,4.834
					c0.002,0.115,0.004,0.234,0.014,0.333c0.024,0.247,0.136,0.321,0.184,0.318c0.376-0.02,0.571,0.03,0.923,0.03
					c0.08,0,0.124-0.001,0.238-0.003c0.055-0.001,0.169,0.072,0.211-0.169c0.034-0.197,0.024-1.209,0.023-1.486
					C595.667,389.579,595.669,389.082,595.667,388.586z"/>
				<path style="fill:#F7F7F7;" d="M598.67,388.586c-0.006-1.12,0.01-2.019,0-3.138c-0.001-0.134-0.01-0.498-0.022-0.613
					c-0.024-0.236-0.099-0.22-0.145-0.219c-0.345,0.008-0.494-0.001-0.982,0.022c-0.142,0.007-0.216-0.059-0.314,0.043
					c-0.033,0.035-0.08,0.097-0.102,0.247c-0.039,0.257-0.032,0.943-0.031,1.289c0.005,1.632-0.02,3.209,0.004,4.834
					c0.002,0.115,0.003,0.234,0.014,0.333c0.025,0.247,0.136,0.321,0.184,0.318c0.376-0.02,0.571,0.03,0.923,0.03
					c0.08,0,0.124-0.001,0.238-0.003c0.055-0.001,0.169,0.072,0.211-0.169c0.034-0.197,0.024-1.209,0.024-1.486
					C598.671,389.579,598.673,389.082,598.67,388.586z"/>
				<path style="fill:#F7F7F7;" d="M601.744,388.586c-0.006-1.12,0.01-2.019,0-3.138c-0.001-0.134-0.01-0.498-0.022-0.613
					c-0.024-0.236-0.099-0.22-0.145-0.219c-0.345,0.008-0.494-0.001-0.982,0.022c-0.142,0.007-0.216-0.059-0.313,0.043
					c-0.033,0.035-0.08,0.097-0.103,0.247c-0.039,0.257-0.033,0.943-0.031,1.289c0.005,1.632-0.02,3.209,0.004,4.834
					c0.002,0.115,0.003,0.234,0.014,0.333c0.025,0.247,0.136,0.321,0.184,0.318c0.376-0.02,0.571,0.03,0.923,0.03
					c0.08,0,0.124-0.001,0.239-0.003c0.055-0.001,0.169,0.072,0.211-0.169c0.034-0.197,0.024-1.209,0.023-1.486
					C601.744,389.579,601.746,389.082,601.744,388.586z"/>
				<path style="fill:#F7F7F7;" d="M604.835,388.601c-0.005-1.12,0.01-2.018,0.001-3.138c-0.002-0.134-0.01-0.498-0.022-0.613
					c-0.024-0.236-0.099-0.22-0.145-0.219c-0.345,0.008-0.494-0.001-0.982,0.022c-0.142,0.007-0.216-0.059-0.313,0.043
					c-0.033,0.035-0.08,0.097-0.103,0.247c-0.039,0.257-0.033,0.943-0.032,1.289c0.005,1.632-0.02,3.209,0.004,4.834
					c0.002,0.115,0.004,0.235,0.014,0.333c0.024,0.247,0.136,0.321,0.184,0.318c0.376-0.02,0.571,0.03,0.923,0.03
					c0.08,0,0.124-0.001,0.238-0.003c0.056-0.001,0.17,0.072,0.211-0.169c0.034-0.197,0.024-1.209,0.023-1.486
					C604.836,389.594,604.838,389.097,604.835,388.601z"/>
				<path style="fill:#F7F7F7;" d="M607.908,388.601c-0.006-1.12,0.01-2.018,0-3.138c-0.002-0.134-0.01-0.498-0.022-0.613
					c-0.024-0.236-0.099-0.22-0.145-0.219c-0.345,0.008-0.494-0.001-0.982,0.022c-0.142,0.007-0.216-0.059-0.313,0.043
					c-0.033,0.035-0.08,0.097-0.103,0.247c-0.039,0.257-0.033,0.943-0.032,1.289c0.005,1.632-0.02,3.209,0.004,4.834
					c0.002,0.115,0.004,0.235,0.014,0.333c0.025,0.247,0.136,0.321,0.184,0.318c0.376-0.02,0.571,0.03,0.923,0.03
					c0.08,0,0.124-0.001,0.238-0.003c0.056-0.001,0.17,0.072,0.211-0.169c0.034-0.197,0.024-1.209,0.023-1.486
					C607.909,389.594,607.911,389.097,607.908,388.601z"/>
				<path style="fill:#F7F7F7;" d="M610.912,388.601c-0.005-1.12,0.01-2.018,0-3.138c-0.002-0.134-0.01-0.498-0.022-0.613
					c-0.024-0.236-0.099-0.22-0.145-0.219c-0.345,0.008-0.494-0.001-0.982,0.022c-0.142,0.007-0.215-0.059-0.313,0.043
					c-0.033,0.035-0.08,0.097-0.103,0.247c-0.039,0.257-0.033,0.943-0.032,1.289c0.005,1.632-0.02,3.209,0.004,4.834
					c0.002,0.115,0.004,0.235,0.014,0.333c0.025,0.247,0.136,0.321,0.184,0.318c0.377-0.02,0.571,0.03,0.923,0.03
					c0.08,0,0.124-0.001,0.238-0.003c0.056-0.001,0.17,0.072,0.211-0.169c0.034-0.197,0.024-1.209,0.023-1.486
					C610.912,389.594,610.914,389.097,610.912,388.601z"/>
			</g>
		</g>
		<g>
			<path style="fill:#5E5E5E;" d="M617.346,442.694c-0.007-1.484,0.455-4.533-1.076-5.64c-1.253-0.907-7.682-0.653-9.443-0.627
				c-3.158,0.046-6.315,0-9.471,0.067c-7.121,0.151-12.829-0.263-19.943-0.008c-0.853,0.031-3.166,0.275-3.893,0.584
				c-1.501,0.636-1.048,2.844-1.041,4.071c0.053,9.242,0.022,16.822-0.207,26.064c-0.094,3.784-0.377,5.772,0.275,8.382
				c0.221,0.884,0.615,2.132,1.572,2.741c1.631,1.036,5.995,0.87,8.195,0.844c10.372-0.127,20.397,0.534,30.724-0.116
				c0.731-0.046,1.491-0.098,2.117-0.363c1.572-0.664,2.037-3.636,2.021-4.92c-0.125-10.069,0.192-15.276,0.192-24.696
				C617.367,446.936,617.361,445.766,617.346,442.694z"/>
			<path style="fill:#303030;" d="M614.931,442.992c-0.007-1.035,0.406-3.16-0.959-3.932c-1.117-0.632-6.847-0.455-8.417-0.437
				c-2.814,0.032-5.628,0-8.442,0.046c-6.347,0.105-11.435-0.184-17.775-0.006c-0.76,0.021-2.822,0.192-3.47,0.407
				c-1.338,0.444-0.934,1.983-0.928,2.838c0.047,6.443,0.02,11.728-0.184,18.17c-0.084,2.638-0.336,4.024,0.245,5.844
				c0.197,0.616,0.548,1.486,1.401,1.91c0.975,0.485,3.045,0.592,4.894,0.604c0.026,0.982-0.026,1.433-0.01,2.841
				c0.007,0.564-0.133,0.646,0.257,0.941c0.132,0.1,0.367,0.24,0.938,0.309c0.609,0.073,1.855,0.093,3.025,0.097
				c0.015,0.906-0.001,1.393,0.055,2.767c0.017,0.428-0.155,0.651,0.113,0.945c0.091,0.099,0.253,0.24,0.646,0.309
				c0.67,0.117,2.463,0.098,3.367,0.095c4.262-0.014,8.381,0.06,12.624-0.013c0.3-0.005,0.612-0.011,0.87-0.041
				c0.646-0.075,0.837-0.41,0.83-0.555c-0.051-1.135,0.079-1.722,0.079-2.784c0-0.241-0.003-0.373-0.009-0.72l0.001-0.008
				c0.543-0.004,1.081-0.004,1.626-0.011c0.437-0.005,0.89-0.011,1.263-0.041c0.938-0.075,1.216-0.41,1.206-0.555
				c-0.075-1.135,0.114-1.722,0.115-2.784c0-0.241-0.004-0.373-0.013-0.719c0-0.02,0.003-0.042,0.008-0.065
				c0.932-0.029,1.864-0.06,2.8-0.106c0.652-0.032,1.329-0.069,1.887-0.253c1.401-0.463,1.816-2.535,1.802-3.43
				c-0.112-7.019,0.171-10.649,0.171-17.216C614.951,445.95,614.945,445.134,614.931,442.992z"/>
		</g>
		<path style="fill:#BFBFBF;" d="M634.173,557.321c4.551-0.003,13.898,0.204,17.294-0.483c2.781-0.563,2.002-3.451,1.923-4.242
			c-0.142-1.419,0-2.837-0.205-4.255c-0.462-3.199,0.808-5.763,0.024-8.959c-0.094-0.383-0.844-1.422-1.789-1.749
			c-1.951-0.674-8.721-0.471-12.483-0.468c-28.337,0.024-51.582,0.01-79.919-0.093c-11.604-0.042-17.698-0.17-25.702,0.124
			c-2.71,0.099-6.537,0.276-8.403,0.706c-3.178,0.732-2.669,2.693-2.586,3.681c0.389,4.66-1.637,9.163,0.357,13.802
			c0.141,0.328,0.302,0.67,1.112,0.951c2.036,0.706,11.148,0.915,15.086,0.908c30.874-0.056,46.841,0.086,75.724,0.086
			C621.165,557.331,624.754,557.328,634.173,557.321z"/>
		<path style="fill:#F0DDD1;" d="M396.019,468.033c1.424-0.929,2.83-2.18,3.097-3.859c0.292-1.832-0.93-3.65-2.538-4.574
			c-1.608-0.924-3.525-1.123-5.38-1.175c-3.428-0.095-6.867,0.245-10.21,1.011c-6.059,1.388-12.12,7.999-3.598,10.987
			C383.47,472.555,390.654,471.532,396.019,468.033z"/>
		<path style="fill:#999999;" d="M555.2,173.356c-0.412,0.297-0.751,0.689-1.012,1.124c-0.902,1.499-0.796,3.56,0.31,4.915
			c1.106,1.355,3.156,1.866,4.741,1.126c1.581-0.738,2.493-2.537,2.506-4.282c0.003-0.479-0.052-0.963-0.223-1.41
			C560.68,172.614,556.977,172.074,555.2,173.356z"/>
		<path style="fill:#999999;" d="M555.2,231.217c-0.412,0.297-0.751,0.689-1.012,1.124c-0.902,1.499-0.796,3.56,0.31,4.915
			c1.106,1.355,3.156,1.866,4.741,1.126c1.581-0.738,2.493-2.538,2.506-4.282c0.003-0.479-0.052-0.963-0.223-1.41
			C560.68,230.475,556.977,229.935,555.2,231.217z"/>
		<path style="fill:#999999;" d="M555.2,286.141c-0.412,0.297-0.751,0.689-1.012,1.124c-0.902,1.499-0.796,3.56,0.31,4.915
			c1.106,1.355,3.156,1.866,4.741,1.126c1.581-0.738,2.493-2.538,2.506-4.282c0.003-0.479-0.052-0.963-0.223-1.41
			C560.68,285.398,556.977,284.859,555.2,286.141z"/>
		<path style="fill:#999999;" d="M555.2,342.437c-0.412,0.297-0.751,0.689-1.012,1.124c-0.902,1.499-0.796,3.56,0.31,4.915
			c1.106,1.355,3.156,1.866,4.741,1.125c1.581-0.738,2.493-2.538,2.506-4.282c0.003-0.479-0.052-0.963-0.223-1.41
			C560.68,341.695,556.977,341.155,555.2,342.437z"/>
		<path style="fill:#999999;" d="M555.2,396.502c-0.412,0.297-0.751,0.689-1.012,1.124c-0.902,1.499-0.796,3.56,0.31,4.916
			c1.106,1.355,3.156,1.866,4.741,1.125c1.581-0.738,2.493-2.538,2.506-4.282c0.003-0.479-0.052-0.963-0.223-1.41
			C560.68,395.76,556.977,395.22,555.2,396.502z"/>
		<path style="fill:#AFD9C4;" d="M555.2,452.766c-0.412,0.297-0.751,0.689-1.012,1.124c-0.902,1.499-0.796,3.56,0.31,4.915
			c1.106,1.355,3.156,1.866,4.741,1.125c1.581-0.738,2.493-2.538,2.506-4.282c0.003-0.479-0.052-0.963-0.223-1.41
			C560.68,452.024,556.977,451.484,555.2,452.766z"/>
		<path style="fill:#C4A451;" d="M676.911,791.547c-14.404-29.521-47.467-47.384-76.862-58.549
			c-31.36-11.911-64.637-17.399-97.17-25.054c-27.784-6.538-67.808-14.404-76.774-46.374c-9.592-34.201,33.491-43.597,57.806-47.655
			c34.785-5.805,70.471-8.851,98.836-32.047c11.912-9.741,21.26-23.195,24.738-38.305c4.335-18.831,2.034-39.614,0.205-58.65
			c-0.978-10.174-2.264-20.316-3.722-30.432c-1.504-10.437-19.893-8.083-18.585,2.515c2.369,19.2,3.959,38.554,4.579,57.891
			c0.509,15.871-0.846,31.219-11.485,43.794c-21.448,25.35-56.461,29.771-87.288,34.36c-30.066,4.475-69.937,10.312-82.898,42.554
			c-5.991,14.902-2.913,32.055,4.989,45.651c8.28,14.247,21.995,24.414,36.856,31.022c30.354,13.496,64.343,17.865,96.51,25.222
			c31.083,7.109,62.276,16.174,88.528,34.938c11.66,8.334,23.203,19.594,27.775,33.536c5.13,15.642-0.259,32.609-6.87,47.022
			c-6.65,14.497-15.894,27.767-28.547,37.649c-12.78,9.98-28.063,16.393-43.379,21.342
			c-71.221,23.014-147.685,20.546-222.006,18.857c-9.425-0.214-18.849-2.247-28.276-2.341c-5.343-0.054-5.054,15.773,0,16.353
			c76.487,8.784,155.903,8.737,231.083-9.332c32.976-7.926,67.756-19.557,90.023-46.676
			C676.178,863.017,692.614,823.729,676.911,791.547z"/>
		<g>
			<path style="fill:#4D4D4D;" d="M316.688,607.025c3.465,8.678,7.143,17.281,9.908,26.234c8.187,26.51,8.078,55.13,5.107,82.874
				c-2.971,27.743-8.707,55.118-11.539,82.877c-5.325,1.073-10.825,1.153-16.167,0.236c0.121-35.52-0.146-71.039-0.802-106.548
				c-0.049-2.671-0.105-5.375-0.792-7.944c-0.742-2.776-2.188-5.276-3.617-7.737c-18.015-31.015-36.03-62.03-54.045-93.045
				c-4.629-7.969-9.304-16.044-11.905-24.974c-2.601-8.93-2.949-18.953,0.956-27.378c6.014-12.978,21.564-19.376,34.977-16.316
				c15.467,3.528,25.455,15.165,28.245,30.751C300.76,566.996,308.868,587.442,316.688,607.025z"/>
			<path style="fill:#4D4D4D;" d="M184.497,767.777c-6.697-0.452-13.183-3.089-18.099-7.357
				c13.234-18.899,18.953-39.804,32.187-58.703c4.185-5.977,8.392-11.99,11.435-18.544c3.741-8.057,5.632-16.732,7.499-25.332
				c7.239-33.35,3.027-73.821,10.265-107.171c0.607-2.796,1.253-5.681,2.989-8.029c4.989-6.747,34.63,3.307,43.12,4.988
				c1.861,0.368,3.88,0.827,5.037,2.243c1.321,1.618,4.562-2.28,4.361-0.234c-1.655,16.854,1.227,9.507-3.046,36.037
				c-1.503,9.328-16.434,68.465-20.094,77.267c-6.47,15.558-14.833,31.546-26.559,44.121
				C215.539,726.424,203.088,744.497,184.497,767.777z"/>
			<g>
				<path style="fill:#454545;" d="M190.646,766.735c2.228,2.858-1.522,7.565,0.659,10.328c3.554,4.503,11.459,2.63,14.932,7.202
					c1.12,1.475,1.56,3.398,1.76,5.282c0.344,3.237,0.063,6.556-0.821,9.701c-0.173,0.617-0.38,1.245-0.786,1.731
					c-0.375,0.449-0.892,0.74-1.415,0.974c-3.117,1.397-6.724,1.047-9.86-0.19c-3.136-1.237-5.897-3.289-8.62-5.319
					c-9.343-6.968-18.685-13.936-28.028-20.904c-0.441-0.329-0.904-0.685-1.109-1.211c-0.217-0.556-0.104-1.192,0.036-1.781
					c1.005-4.215,3.234-8,5.431-11.706c1.793-3.026,3.588-6.052,5.517-8.988C168.342,751.856,183.396,757.433,190.646,766.735z"/>
			</g>
			<g>
				<path style="fill:#454545;" d="M326.368,798.482c2.915,0.594,2.098,5.747,4.558,7.215c2.072,1.236,4.554,1.39,6.937,1.515
					c3.064,0.161,6.128,0.321,9.193,0.482c2.112,0.111,4.412,0.301,5.959,1.813c1.729,1.69,1.941,4.451,2.04,6.939
					c0.103,2.589,0.142,5.408-1.331,7.492c-2.003,2.833-5.862,3.108-9.208,3.088c-11.84-0.07-29.601-0.783-41.4-1.753
					c-1.392-0.115-2.989-0.362-3.717-1.613c-0.47-0.808-0.435-1.823-0.385-2.771l1.09-21.706
					C300.103,799.182,316.719,796.517,326.368,798.482z"/>
			</g>
			<path style="fill:#F2F2F2;" d="M283.965,419.067c7.697,1.891,14.262,6.911,19.859,12.522
				c5.597,5.612,10.471,11.927,16.268,17.331c2.456,2.289,5.217,4.48,8.509,5.137c2.631,0.525,5.345,0.018,7.979-0.488
				c12.057-2.318,24.114-4.635,36.171-6.953c5.162-0.992,10.438-1.988,15.644-1.259c0.345,3.937,0.689,7.874,1.034,11.811
				c0.04,0.46,0.071,0.961-0.187,1.345c-0.271,0.404-0.781,0.559-1.251,0.687c-15.375,4.168-30.751,8.335-46.126,12.503
				c-8.66,2.348-17.373,4.705-26.308,5.529c-1.786,0.165-3.633,0.261-5.331-0.319c-1.531-0.523-2.826-1.556-4.07-2.59
				c-13.513-11.227-24.99-24.663-36.394-38.027c-1.794-2.103-3.66-4.354-4.098-7.083
				C264.332,420.936,278.139,417.635,283.965,419.067z"/>
			<g>
				<path style="fill:#262626;" d="M452.138,439.657c9.402-2.32,18.675-5.165,27.76-8.519c0.607-0.224,1.253-0.482,1.607-1.022
					c0.219-0.335,0.299-0.744,0.318-1.144c0.04-0.866-0.186-1.719-0.41-2.556c-1.07-4.001-2.143-8.008-3.554-11.902
					c-0.228-0.628-0.475-1.271-0.93-1.759c-0.669-0.718-1.706-0.999-2.686-0.964c-0.981,0.034-1.928,0.346-2.859,0.655
					c-6.303,2.091-12.606,4.182-18.909,6.273c-3.113,1.033-6.238,2.07-9.185,3.51c-0.228,0.111-0.463,0.232-0.613,0.436
					c-0.126,0.171-0.179,0.383-0.217,0.591c-0.235,1.26-0.046,2.556,0.162,3.821c0.435,2.642,0.954,5.271,1.556,7.881
					c0.289,1.252,0.602,2.517,1.216,3.646c0.477,0.877,1.64,2.496,2.792,2.467c0.51-0.013,1.204-0.578,1.69-0.764
					C450.607,440.025,451.378,439.845,452.138,439.657z"/>
				<path style="fill:#F7F7F7;" d="M468.664,417.113c2.067-0.698,3.73-1.241,5.794-1.941c0.247-0.084,0.917-0.317,1.125-0.398
					c0.429-0.166,0.378-0.22,0.363-0.258c-0.114-0.287-0.139-0.419-0.32-0.818c-0.053-0.116,0.048-0.22-0.169-0.239
					c-0.073-0.007-0.201-0.008-0.486,0.066c-0.485,0.126-1.751,0.556-2.39,0.771c-3.012,1.014-5.931,1.969-8.924,2.995
					c-0.212,0.073-0.432,0.148-0.611,0.218c-0.45,0.174-0.553,0.314-0.535,0.353c0.143,0.307,0.106,0.502,0.206,0.801
					c0.023,0.068,0.037,0.104,0.074,0.2c0.018,0.046-0.084,0.188,0.372,0.074c0.374-0.093,2.239-0.727,2.75-0.9
					C466.83,417.728,467.747,417.422,468.664,417.113z"/>
				<path style="fill:#F7F7F7;" d="M469.536,419.716c2.067-0.698,3.73-1.241,5.794-1.941c0.247-0.084,0.917-0.317,1.125-0.397
					c0.43-0.166,0.378-0.22,0.363-0.258c-0.113-0.287-0.139-0.419-0.32-0.818c-0.053-0.116,0.048-0.219-0.169-0.239
					c-0.074-0.007-0.201-0.008-0.486,0.066c-0.484,0.126-1.751,0.556-2.389,0.771c-3.012,1.014-5.931,1.969-8.924,2.995
					c-0.212,0.073-0.432,0.148-0.611,0.218c-0.45,0.174-0.553,0.314-0.535,0.353c0.143,0.306,0.106,0.502,0.206,0.801
					c0.023,0.068,0.037,0.104,0.074,0.2c0.018,0.046-0.084,0.188,0.372,0.074c0.374-0.093,2.239-0.727,2.75-0.899
					C467.702,420.331,468.62,420.026,469.536,419.716z"/>
				<path style="fill:#F7F7F7;" d="M470.389,422.261c2.067-0.698,3.73-1.241,5.794-1.941c0.247-0.084,0.917-0.317,1.125-0.397
					c0.429-0.166,0.378-0.22,0.363-0.258c-0.114-0.287-0.139-0.419-0.32-0.818c-0.053-0.116,0.048-0.22-0.169-0.239
					c-0.074-0.007-0.201-0.008-0.486,0.066c-0.485,0.126-1.751,0.556-2.39,0.771c-3.012,1.014-5.931,1.969-8.924,2.995
					c-0.212,0.073-0.432,0.148-0.611,0.218c-0.45,0.174-0.553,0.314-0.535,0.353c0.143,0.307,0.107,0.502,0.206,0.801
					c0.023,0.068,0.037,0.104,0.074,0.2c0.018,0.046-0.084,0.188,0.372,0.074c0.374-0.093,2.239-0.727,2.75-0.899
					C468.555,422.876,469.473,422.57,470.389,422.261z"/>
				<path style="fill:#F7F7F7;" d="M471.262,424.864c2.067-0.698,3.73-1.241,5.794-1.941c0.247-0.084,0.917-0.317,1.125-0.398
					c0.43-0.166,0.378-0.22,0.363-0.258c-0.113-0.287-0.139-0.419-0.32-0.818c-0.053-0.116,0.048-0.219-0.169-0.239
					c-0.074-0.007-0.201-0.008-0.486,0.066c-0.485,0.126-1.751,0.556-2.389,0.771c-3.012,1.014-5.931,1.969-8.924,2.995
					c-0.212,0.073-0.432,0.148-0.611,0.218c-0.45,0.174-0.553,0.314-0.535,0.353c0.143,0.307,0.106,0.502,0.206,0.801
					c0.023,0.068,0.037,0.104,0.074,0.2c0.018,0.046-0.084,0.188,0.372,0.074c0.374-0.093,2.239-0.727,2.75-0.9
					C469.427,425.479,470.345,425.173,471.262,424.864z"/>
			</g>
			<path style="fill:#AA6A64;" d="M279.408,411.659c5.166-0.14,11.348,0.198,13.99,4.639c0.977,1.643,1.265,3.593,1.533,5.486
				c1.15,8.121,2.301,16.254,2.738,24.444c0.549,10.298-0.034,20.631,0.482,30.931c1.152,22.995,7.738,45.312,13.321,67.649
				c1.702,6.808,3.324,13.842,2.29,20.783c-0.167,1.12-0.415,2.263-1.047,3.203c-0.76,1.131-1.985,1.847-3.178,2.506
				c-25.726,14.226-56.026,20.025-85.187,16.302c-3.545-0.453-7.239-1.111-10.06-3.306c-3.201-2.491-4.733-6.53-5.883-10.42
				c-6.001-20.291-5.618-42.042-1.956-62.882c3.661-20.84,10.498-40.97,17.309-61.004c3.969-11.672,7.937-23.344,11.906-35.017
				c3.981-11.708,7.309-12.028,17.514-7.218C261.355,411.608,270.521,411.899,279.408,411.659z"/>
			<g>
				<path style="fill:#F0DDD1;" d="M252.659,395.915c3.486,4.337,8.668,6.892,13.678,9.313c4.091,1.977,8.45,4.005,12.971,3.55
					c7.862-0.792,12.906-8.478,16.784-15.363c5.817-10.329,11.795-21.229,11.93-33.083c0.123-10.759-4.964-21.458-13.386-28.155
					c-8.421-6.697-19.992-9.243-30.447-6.701c-12.566,3.056-27.14,11.871-24.002,26.44c1.42,6.596,3.84,12.835,5.002,19.526
					C246.609,379.621,247.248,389.185,252.659,395.915z"/>
				<path style="fill:#C4A451;" d="M427.911,430.711c-34.707,6.789-69.298,18.034-99.32,37.076
					c-14.763,9.364-28.639,20.556-40.303,33.609c-12.626,14.128-17.993,28.237-27.513,44.497
					c-19.127,32.67-35.646,62.859-66.192,90.635c-29.57,26.888-68.245,43.759-107.046,51.524
					c-11.485,2.299-7.755,18.157,3.666,15.988c75.595-14.362,135.134-69.117,176.551-131.46
					c10.685-16.084,19.029-33.613,29.993-49.499c9.864-14.293,22.353-26.957,36.314-37.27
					c28.839-21.305,62.931-33.867,97.943-40.419C446.908,442.601,442.827,427.792,427.911,430.711z"/>
			</g>
			<g>
				<path style="fill:#262626;" d="M463.096,436.81c-0.434-4.491-3.475-8.293-4.668-12.645c-0.913-3.33-1.096-7.497-4.145-9.119
					c-2.226-1.184-4.939-0.349-7.328,0.457c-3.855,1.301-7.751,2.479-11.681,3.531c-15.089,4.042-30.705,6.248-45.35,11.68
					c0.369,1.069,0.738,2.139,1.107,3.209c-3.354,0.895-6.677,1.891-9.936,3.1c0.165,0.478,0.33,0.957,0.495,1.435
					c-1.266,0.459-2.522,0.941-3.754,1.486c-2.557,1.132-5.307,2.864-5.72,5.63c-0.24,1.602,0.381,3.194,0.99,4.694
					c2.003,4.938,3.192,14.299,9.957,11.411c1.742-0.744,3.67-1.622,5.682-2.472c0.151,0.438,0.302,0.876,0.453,1.313
					c0.105,0.304,0.228,0.631,0.501,0.8c0.292,0.181,0.666,0.127,1.003,0.063c3.052-0.573,6.033-1.41,8.985-2.36
					c0.145,0.419,0.289,0.838,0.434,1.258c0.132,0.382,0.286,0.794,0.63,1.007c0.367,0.227,0.838,0.16,1.262,0.08
					c11.3-2.122,21.866-7.005,32.829-10.469c8.194-2.589,16.669-4.405,24.508-7.924c0.961-0.431,1.939-0.909,2.632-1.701
					C463.021,440.088,463.248,438.381,463.096,436.81z"/>
				<g>
					<path style="fill:#0F0F0F;" d="M402.269,443.073c0.932-0.47,1.891-1.135,2.234-2.22c0.288-0.91,0.077-1.915-0.164-2.842
						c-0.9-3.451-2.213-6.764-3.893-9.822c-0.138-0.251-0.286-0.509-0.512-0.657c-0.274-0.18-0.613-0.167-0.927-0.115
						c-1.092,0.181-2.226,0.758-3.133,1.462c-0.954,0.741-0.744,1.219-0.277,2.435c1.399,3.637,2.797,7.273,4.196,10.91
						c0.132,0.344,0.274,0.702,0.535,0.933C400.864,443.633,401.646,443.387,402.269,443.073z"/>
					<path style="fill:#0F0F0F;" d="M408.124,440.383c0.062,0.178,0.128,0.363,0.254,0.492c0.236,0.242,0.598,0.212,0.914,0.16
						c0.811-0.133,1.635-0.321,2.341-0.792c0.706-0.471,1.282-1.275,1.341-2.197c0.046-0.724-0.222-1.421-0.484-2.084
						c-1.258-3.179-2.516-6.357-3.774-9.536c-0.191-0.483-0.409-1-0.824-1.247c-0.862-0.516-3.064,0.478-3.754,1.144
						c-1.044,1.009-0.007,2.631,0.404,3.805C405.736,433.545,406.904,436.976,408.124,440.383z"/>
					<path style="fill:#0F0F0F;" d="M417.156,437.586c0.056,0.175,0.116,0.358,0.239,0.488c0.232,0.246,0.606,0.235,0.934,0.2
						c0.841-0.089,1.697-0.231,2.444-0.653s1.377-1.173,1.48-2.063c0.08-0.699-0.164-1.387-0.403-2.042
						c-1.149-3.14-2.299-6.28-3.448-9.42c-0.175-0.477-0.376-0.988-0.791-1.248c-0.864-0.542-3.174,0.315-3.914,0.926
						c-1.121,0.927-0.127,2.548,0.242,3.705C415.011,430.847,416.056,434.228,417.156,437.586z"/>
					<path style="fill:#0F0F0F;" d="M425.318,434.752c0.051,0.162,0.105,0.33,0.217,0.45c0.211,0.227,0.551,0.216,0.849,0.184
						c0.765-0.083,1.544-0.214,2.224-0.604c0.68-0.389,1.254-1.082,1.347-1.903c0.074-0.644-0.148-1.279-0.365-1.883
						c-1.043-2.895-2.086-5.79-3.13-8.685c-0.158-0.44-0.341-0.911-0.718-1.151c-0.785-0.499-2.888,0.292-3.561,0.856
						c-1.02,0.855-0.117,2.35,0.217,3.417C423.371,428.539,424.319,431.655,425.318,434.752z"/>
					<path style="fill:#0F0F0F;" d="M406.426,445.917c-0.171-0.508-0.369-1.052-0.779-1.328c-0.854-0.574-3.148,0.347-3.883,1.001
						c-1.114,0.991-0.134,2.716,0.227,3.948c1.051,3.586,2.076,7.185,3.154,10.76c0.055,0.187,0.113,0.381,0.235,0.52
						c0.229,0.261,0.6,0.248,0.925,0.21c0.834-0.098,1.683-0.253,2.426-0.705c0.742-0.452,1.369-1.254,1.474-2.204
						c0.082-0.745-0.157-1.478-0.393-2.175C408.683,452.601,407.555,449.259,406.426,445.917z"/>
					<path style="fill:#0F0F0F;" d="M414.826,443.496c-0.177-0.491-0.382-1.017-0.804-1.285c-0.879-0.557-3.232,0.326-3.985,0.956
						c-1.141,0.955-0.13,2.624,0.244,3.815c1.09,3.468,2.152,6.949,3.27,10.407c0.057,0.181,0.117,0.369,0.243,0.503
						c0.236,0.253,0.617,0.241,0.95,0.205c0.856-0.093,1.728-0.239,2.489-0.674c0.761-0.435,1.402-1.208,1.507-2.125
						c0.082-0.72-0.166-1.429-0.409-2.103C417.163,449.962,415.995,446.729,414.826,443.496z"/>
					<path style="fill:#0F0F0F;" d="M423.655,440.385c-0.182-0.49-0.392-1.015-0.825-1.282c-0.9-0.556-3.307,0.321-4.077,0.948
						c-1.167,0.951-0.13,2.616,0.254,3.804c1.12,3.46,2.212,6.931,3.36,10.38c0.058,0.181,0.121,0.367,0.249,0.502
						c0.242,0.253,0.632,0.241,0.973,0.206c0.876-0.091,1.768-0.237,2.547-0.669c0.779-0.433,1.434-1.203,1.54-2.117
						c0.083-0.718-0.171-1.424-0.422-2.097C426.055,446.835,424.855,443.61,423.655,440.385z"/>
					<path style="fill:#0F0F0F;" d="M436.085,446.948c-1.246-3.046-2.492-6.091-3.738-9.137c-0.189-0.462-0.407-0.959-0.853-1.213
						c-0.927-0.528-3.398,0.289-4.187,0.878c-1.196,0.892-0.123,2.467,0.277,3.589c1.165,3.267,2.3,6.544,3.495,9.802
						c0.061,0.171,0.126,0.347,0.258,0.474c0.25,0.239,0.65,0.23,1.001,0.198c0.9-0.083,1.816-0.216,2.615-0.621
						c0.798-0.405,1.469-1.129,1.574-1.99C436.609,448.251,436.345,447.583,436.085,446.948z"/>
				</g>
			</g>
			<g style="opacity:0.81;">
				<path style="fill:#B3D6E3;" d="M499.848,426.69c-2.311-7.795-5.093-17.995-8.2-25.487c-4.773,0.177-9.451,1.413-14.085,2.643
					c-6.322,1.678-12.644,3.356-18.966,5.034c-4.705,1.249-18.937,3.61-20.459,9.304c-0.801,2.998,2.43,9.247,3.296,12.164
					c1.385,4.66,2.769,9.321,4.154,13.981c0.446,1.501,1.033,3.171,2.433,3.805c1.14,0.515,2.466,0.169,3.671-0.188
					c15.288-4.535,30.412-7.373,45.155-13.554c1.066-0.447,2.183-0.939,2.875-1.883C500.911,430.885,500.418,428.614,499.848,426.69
					z"/>
				<path style="fill:#B3D6E3;" d="M443.696,409.507c0.251-0.425,0.628-0.76,0.999-1.086c6.365-5.583,14.43-10.821,22.018-14.575
					c0.289-0.143,0.607-0.288,0.921-0.217c0.2,0.044,0.37,0.171,0.533,0.295c0.893,0.678,0.506,1.435,1.368,2.152
					c0.277,0.231,0.582,0.569,0.445,0.903c-0.068,0.165-0.229,0.27-0.382,0.365c-6.583,4.074-12.064,7.827-18.949,11.367
					c-0.259,0.133-0.533,0.281-0.667,0.539c-0.132,0.256-0.095,0.562-0.056,0.847c0.12,0.856,0.239,1.713,0.359,2.569
					c0.032,0.226,0.058,0.475-0.07,0.663c-0.141,0.207-0.415,0.265-0.663,0.305c-1.073,0.177-4.012,1.163-4.668,0.349
					C444.263,413.209,443.213,410.324,443.696,409.507z"/>
			</g>
			<path style="fill:#F0DDD1;" d="M292.982,542.383c-0.579-3.487-2.86-6.651-5.986-8.302c1.12-0.329,2.514-1.107,2.21-2.234
				c-0.189-0.703-0.965-1.041-1.639-1.317c-2.885-1.181-5.529-2.948-7.724-5.162c-0.201-0.203-0.407-0.404-0.612-0.605
				c0.004-0.005,0.009-0.009,0.013-0.013c-12.598-14.722-23.929-30.528-33.827-47.185c4.054-4.591,6.826-10.147,9.551-15.632
				c3.924-7.897,7.848-15.794,11.772-23.691c1.505-3.029,3.051-6.398,2.194-9.67c-1.509-5.759-9.815-7.124-14.797-3.864
				c-4.982,3.26-7.367,9.203-9.463,14.776c-5.484,14.575-10.969,29.149-16.453,43.724c-0.629,1.67-1.265,3.49-0.752,5.2
				c0.404,1.348,1.458,2.386,2.472,3.361c13.655,13.135,21.977,24.586,35.632,37.721c0.453-1.718,2.151,3.675,2.19,3.655
				c3.94,6.572,11.515,13.535,19.008,15.169c0.799,0.174,4.015-1.107,4.752-1.462C292.223,546.514,292.685,543.102,292.982,542.383z
				"/>
			<path style="fill:#F2F2F2;" d="M281.289,514.175c-0.066-3.387-5.969-4.95-5.107-8.226c-2.529,1.547-5.057,3.095-7.586,4.642
				c-4.217-8.351-8.434-16.701-12.651-25.051c-1.02-2.02-2.055-4.084-2.381-6.323c-0.547-3.754,0.952-7.476,2.49-10.944
				c4.993-11.259,10.739-22.184,17.186-32.678c2.062-3.357,5.686-8.025,3.958-12.203c-1.483-3.586-6.577-6.973-9.912-8.387
				c-3.75-1.591-8.185-1.802-11.856-0.036c-4.863,2.338-7.568,7.524-9.943,12.369c-6.144,12.54-12.292,25.089-17.661,37.98
				c-2.932,7.04-5.658,14.296-6.308,21.894c-0.242,2.828-0.161,5.806,1.167,8.314c0.947,1.789,2.458,3.204,3.94,4.582
				c8.954,8.325,17.908,16.651,26.862,24.976c0.399,0.371,0.828,0.811,0.817,1.355c-0.014,0.67-0.669,1.113-1.077,1.646
				c-0.882,1.151-0.574,2.883,0.313,4.029c0.887,1.147,2.219,1.844,3.509,2.507c6.585-5.93,13.61-11.37,20.999-16.262
				C279.587,517.339,281.324,516.02,281.289,514.175z"/>
			<path style="fill:#FCD79F;" d="M304.419,344.096c-3.037,0.366-15.218,1.204-18.275,1.09c-2.977-0.111-6.71-0.031-7.948,2.678
				c-0.248,0.542-0.361,1.149-0.688,1.647c-1.193,1.814-3.949,1.002-6.109,1.223c-2.928,0.3-5.181,2.915-6.056,5.726
				c-0.875,2.811-0.673,5.824-0.601,8.767c0.071,2.943-0.029,6.018-1.417,8.613c-1.497-1.577-4.037-2.25-5.944-1.204
				s-2.614,3.972-1.101,5.535c0.666,0.688,1.613,1.035,2.337,1.662c2.125,1.842,1.626,5.171,1.392,7.974
				c-0.483,5.795,1.044,11.738,4.26,16.583c-3.992,0.142-6.401-5.326-10.395-5.369c-1.085-0.012-2.217,0.393-3.225-0.009
				c-0.66-0.264-1.144-0.835-1.562-1.41c-2.438-3.358-3.625-7.627-6.656-10.461c-2.413-2.257-5.775-3.372-7.971-5.841
				c-3.077-3.46-3.135-8.686-5.534-12.646c-1.841-3.04-4.958-5.159-6.716-8.247c-1.838-3.229-1.981-7.165-1.467-10.845
				c0.545-3.894,1.774-7.691,3.616-11.165c2.809-5.299,6.962-9.741,11.065-14.116c2.794-2.979,5.625-5.989,9.049-8.217
				c4.255-2.769,9.321-4.22,14.396-4.346c5.463-0.136,10.849,1.214,16.088,2.767c7.088,2.101,23.176,3.879,29.991,6.743
				c3.227,1.357,6.508,2.859,8.916,5.4C321.796,335,313.239,343.035,304.419,344.096z"/>
		</g>
		<g>
			<g>
				<path style="fill:#C4A451;" d="M1058.989,612.475c-19.816-0.898-37.881-1.549-46.159-20.402
					c-8.031-18.291-7.835-39.032-3.894-57.989c4.485-21.575,10.8-43.442,8.086-65.684c-2.3-18.853-10.381-37.266-26.854-47.818
					c-17.347-11.112-39.949-10.87-59.36-6.383c-19.121,4.42-36.967,14.006-51.572,27.058c-7.458,6.665-13.959,14.406-19.425,22.777
					c-5.568,8.528-9.991,18.077-17.111,25.482c-6.942,7.22-14.919,10.244-24.879,8.33c-9.261-1.78-19.347-4.808-27.095-10.357
					c-20.541-14.713-6.968-45.683-9.093-66.221c-1.218-11.771-5.783-22.584-13.756-31.394c-6.85-7.569-18.044-11.316-23.606-19.917
					c-5.784-8.946-20.181-0.613-14.339,8.381c5.553,8.549,14.02,12.684,21.707,18.897c7.426,6.002,12.331,14.679,13.521,24.165
					c2.826,22.536-8.423,45.78,4.209,66.995c5.114,8.589,13.409,14.633,22.438,18.592c9.64,4.228,20.409,7.688,30.986,8.171
					c23.95,1.092,37.274-19.36,48.08-37.479c10.29-17.254,24.384-31.02,42.372-40.143c16.803-8.522,37.972-13.41,56.584-8.721
					c19.387,4.884,29.508,21.678,32.066,40.6c3.024,22.37-4.317,44.624-7.924,66.476c-3.649,22.112-4.502,46.972,8.26,66.537
					c12.474,19.122,34.607,26.888,56.757,24.597C1062.316,626.682,1062.445,612.631,1058.989,612.475z"/>
			</g>
			<g>
				<g>
					<path style="fill:#262626;" d="M694.334,315.552c-5.879-6.993-12.15-13.657-18.772-19.952c-0.442-0.42-0.929-0.86-1.535-0.935
						c-0.375-0.046-0.754,0.056-1.1,0.207c-0.749,0.327-1.378,0.874-1.993,1.412c-2.941,2.573-5.886,5.149-8.595,7.965
						c-0.437,0.454-0.878,0.931-1.102,1.52c-0.329,0.865-0.135,1.86,0.302,2.676c0.438,0.816,1.096,1.488,1.745,2.147
						c4.395,4.465,8.79,8.93,13.185,13.394c2.171,2.205,4.35,4.418,6.796,6.314c0.189,0.146,0.389,0.295,0.625,0.337
						c0.197,0.035,0.398-0.008,0.591-0.062c1.165-0.326,2.183-1.025,3.167-1.728c2.055-1.469,4.065-3.003,6.023-4.599
						c0.94-0.766,1.879-1.558,2.579-2.548c0.544-0.769,1.43-2.428,0.925-3.391c-0.223-0.426-0.991-0.779-1.35-1.112
						C695.283,316.695,694.81,316.118,694.334,315.552z"/>
					<path style="fill:#F7F7F7;" d="M668.368,310.952c-1.452-1.459-2.603-2.641-4.056-4.096c-0.174-0.174-0.65-0.644-0.805-0.787
						c-0.32-0.294-0.343-0.228-0.37-0.2c-0.196,0.216-0.297,0.292-0.559,0.612c-0.076,0.093-0.206,0.051-0.131,0.243
						c0.025,0.065,0.077,0.173,0.258,0.384c0.308,0.358,1.2,1.25,1.648,1.702c2.112,2.128,4.137,4.201,6.251,6.307
						c0.15,0.149,0.305,0.304,0.439,0.427c0.334,0.308,0.496,0.338,0.521,0.306c0.2-0.249,0.381-0.299,0.592-0.508
						c0.048-0.047,0.073-0.075,0.138-0.146c0.032-0.034,0.194-0.007-0.092-0.346c-0.235-0.278-1.548-1.592-1.907-1.953
						C669.653,312.248,669.011,311.599,668.368,310.952z"/>
					<path style="fill:#F7F7F7;" d="M670.208,309.129c-1.452-1.459-2.604-2.641-4.056-4.096c-0.174-0.174-0.65-0.644-0.805-0.787
						c-0.32-0.294-0.343-0.228-0.369-0.2c-0.196,0.216-0.297,0.292-0.559,0.612c-0.077,0.093-0.206,0.051-0.132,0.243
						c0.025,0.065,0.077,0.173,0.258,0.384c0.308,0.358,1.2,1.25,1.648,1.701c2.112,2.128,4.137,4.201,6.251,6.307
						c0.15,0.149,0.305,0.304,0.439,0.427c0.334,0.308,0.496,0.338,0.521,0.306c0.2-0.249,0.381-0.299,0.592-0.508
						c0.048-0.047,0.073-0.075,0.138-0.146c0.032-0.034,0.194-0.007-0.093-0.346c-0.235-0.278-1.548-1.592-1.907-1.953
						C671.493,310.426,670.852,309.776,670.208,309.129z"/>
					<path style="fill:#F7F7F7;" d="M672.007,307.348c-1.452-1.459-2.604-2.641-4.056-4.096c-0.174-0.174-0.65-0.644-0.805-0.786
						c-0.32-0.294-0.343-0.228-0.369-0.2c-0.196,0.216-0.297,0.292-0.559,0.612c-0.076,0.093-0.206,0.051-0.132,0.243
						c0.025,0.065,0.077,0.173,0.258,0.384c0.308,0.358,1.2,1.25,1.648,1.701c2.112,2.128,4.137,4.201,6.251,6.307
						c0.15,0.149,0.305,0.304,0.439,0.427c0.334,0.308,0.496,0.338,0.521,0.306c0.2-0.249,0.381-0.299,0.592-0.508
						c0.048-0.047,0.073-0.075,0.138-0.146c0.032-0.034,0.194-0.007-0.093-0.346c-0.235-0.277-1.548-1.592-1.907-1.953
						C673.292,308.644,672.651,307.995,672.007,307.348z"/>
					<path style="fill:#F7F7F7;" d="M673.848,305.525c-1.452-1.459-2.604-2.641-4.056-4.096c-0.174-0.174-0.65-0.644-0.805-0.787
						c-0.32-0.294-0.343-0.228-0.369-0.2c-0.196,0.216-0.297,0.292-0.559,0.612c-0.076,0.093-0.206,0.05-0.132,0.243
						c0.025,0.065,0.077,0.173,0.258,0.384c0.308,0.358,1.2,1.25,1.648,1.702c2.112,2.128,4.137,4.201,6.251,6.307
						c0.15,0.149,0.305,0.304,0.439,0.427c0.334,0.308,0.496,0.338,0.521,0.306c0.2-0.249,0.381-0.299,0.592-0.508
						c0.048-0.047,0.073-0.075,0.138-0.146c0.032-0.034,0.194-0.007-0.092-0.346c-0.235-0.278-1.548-1.592-1.907-1.953
						C675.132,306.821,674.491,306.172,673.848,305.525z"/>
				</g>
				<g>
					<path style="fill:#262626;" d="M687.36,307.462c-3.62,2.238-5.573,6.395-8.76,9.217c-2.439,2.16-5.89,4.05-5.993,7.307
						c-0.075,2.377,1.761,4.326,3.438,6.013c2.707,2.721,5.326,5.529,7.854,8.417c9.705,11.089,18.076,23.389,28.773,33.525
						c0.752-0.758,1.504-1.515,2.256-2.273c2.154,2.466,4.382,4.865,6.762,7.12c0.336-0.339,0.672-0.678,1.009-1.017
						c0.915,0.88,1.847,1.743,2.821,2.559c2.023,1.693,4.634,3.299,7.148,2.497c1.456-0.464,2.545-1.652,3.561-2.793
						c3.346-3.752,10.775-8.657,5.513-13.181c-1.355-1.165-2.901-2.431-4.459-3.781c0.308-0.31,0.615-0.62,0.923-0.93
						c0.213-0.215,0.44-0.456,0.469-0.757c0.031-0.322-0.17-0.616-0.364-0.876c-1.756-2.345-3.706-4.52-5.739-6.623
						c0.295-0.297,0.589-0.594,0.884-0.891c0.268-0.271,0.553-0.573,0.59-0.953c0.039-0.406-0.214-0.776-0.458-1.102
						c-6.502-8.682-15.035-15.592-22.533-23.43c-5.604-5.858-10.67-12.276-16.914-17.446c-0.765-0.634-1.576-1.263-2.536-1.52
						C690.166,306.16,688.627,306.679,687.36,307.462z"/>
					<g>
						<path style="fill:#0F0F0F;" d="M717.993,356.343c-0.786-0.593-1.748-1.128-2.809-0.966c-0.89,0.135-1.653,0.732-2.337,1.322
							c-2.547,2.199-4.804,4.691-6.693,7.386c-0.155,0.221-0.312,0.454-0.343,0.707c-0.038,0.307,0.114,0.589,0.289,0.832
							c0.608,0.849,1.569,1.569,2.543,2.043c1.024,0.499,1.342,0.122,2.176-0.78c2.496-2.698,4.992-5.397,7.488-8.095
							c0.236-0.255,0.48-0.524,0.567-0.841C719.053,357.299,718.518,356.74,717.993,356.343z"/>
						<path style="fill:#0F0F0F;" d="M713.278,352.508c0.125-0.127,0.254-0.26,0.31-0.42c0.106-0.301-0.07-0.595-0.245-0.841
							c-0.451-0.632-0.952-1.251-1.645-1.652c-0.693-0.401-1.613-0.554-2.418-0.22c-0.632,0.262-1.111,0.78-1.563,1.278
							c-2.167,2.389-4.333,4.777-6.5,7.166c-0.329,0.363-0.676,0.763-0.713,1.217c-0.077,0.945,1.681,2.395,2.531,2.701
							c1.289,0.464,2.23-1.09,3.052-1.926C708.484,357.377,710.902,354.959,713.278,352.508z"/>
						<path style="fill:#0F0F0F;" d="M707.149,346.027c0.125-0.12,0.255-0.247,0.314-0.406c0.112-0.299-0.054-0.611-0.22-0.873
							c-0.426-0.675-0.903-1.34-1.571-1.797c-0.669-0.457-1.566-0.677-2.363-0.393c-0.625,0.223-1.106,0.716-1.561,1.192
							c-2.179,2.281-4.358,4.561-6.538,6.842c-0.331,0.346-0.68,0.729-0.727,1.189c-0.099,0.957,1.588,2.556,2.414,2.928
							c1.251,0.563,2.21-0.954,3.036-1.748C702.338,350.649,704.764,348.356,707.149,346.027z"/>
						<path style="fill:#0F0F0F;" d="M701.351,340.299c0.116-0.11,0.236-0.226,0.291-0.371c0.104-0.273-0.047-0.556-0.198-0.795
							c-0.389-0.613-0.824-1.217-1.438-1.631c-0.613-0.414-1.438-0.61-2.172-0.348c-0.576,0.206-1.021,0.658-1.442,1.094
							c-2.016,2.089-4.032,4.177-6.048,6.266c-0.306,0.317-0.629,0.668-0.675,1.087c-0.095,0.872,1.45,2.323,2.207,2.658
							c1.149,0.507,2.038-0.879,2.802-1.607C696.902,344.534,699.146,342.433,701.351,340.299z"/>
						<path style="fill:#0F0F0F;" d="M718.669,351.64c-0.358,0.356-0.737,0.75-0.799,1.213c-0.13,0.962,1.604,2.52,2.464,2.87
							c1.303,0.53,2.355-1.017,3.247-1.836c2.598-2.383,5.217-4.749,7.795-7.151c0.135-0.124,0.275-0.254,0.342-0.415
							c0.126-0.303-0.04-0.611-0.208-0.87c-0.43-0.665-0.915-1.319-1.607-1.76c-0.692-0.44-1.632-0.637-2.479-0.33
							c-0.665,0.241-1.186,0.749-1.678,1.238C723.387,346.946,721.028,349.293,718.669,351.64z"/>
						<path style="fill:#0F0F0F;" d="M713.122,345.538c-0.342,0.355-0.702,0.747-0.753,1.216c-0.106,0.976,1.622,2.6,2.469,2.975
							c1.284,0.568,2.275-0.982,3.128-1.795c2.482-2.367,4.986-4.715,7.447-7.102c0.129-0.123,0.263-0.253,0.324-0.415
							c0.116-0.305-0.053-0.623-0.222-0.89c-0.435-0.686-0.922-1.363-1.607-1.826c-0.685-0.463-1.607-0.684-2.427-0.391
							c-0.644,0.23-1.14,0.735-1.61,1.222C717.622,340.867,715.372,343.203,713.122,345.538z"/>
						<path style="fill:#0F0F0F;" d="M706.812,339.359c-0.339,0.358-0.696,0.755-0.742,1.232c-0.096,0.994,1.649,2.666,2.5,3.057
							c1.291,0.592,2.269-0.979,3.114-1.8c2.462-2.389,4.946-4.758,7.387-7.167c0.128-0.124,0.261-0.255,0.321-0.42
							c0.113-0.31-0.059-0.635-0.231-0.909c-0.442-0.704-0.937-1.398-1.627-1.877c-0.691-0.479-1.615-0.713-2.434-0.422
							c-0.642,0.228-1.135,0.738-1.6,1.23C711.272,334.642,709.042,337.001,706.812,339.359z"/>
						<path style="fill:#0F0F0F;" d="M707.191,326.105c-2.059,2.323-4.118,4.646-6.178,6.969c-0.313,0.353-0.642,0.744-0.671,1.227
							c-0.061,1.005,1.66,2.756,2.487,3.179c1.253,0.641,2.139-0.923,2.923-1.729c2.28-2.346,4.582-4.673,6.842-7.04
							c0.119-0.122,0.241-0.251,0.294-0.416c0.098-0.311-0.076-0.646-0.249-0.929c-0.445-0.728-0.939-1.447-1.614-1.955
							c-0.675-0.507-1.567-0.773-2.34-0.504C708.075,325.119,707.62,325.621,707.191,326.105z"/>
					</g>
				</g>
				<g style="opacity:0.81;">
					<path style="fill:#B3D6E3;" d="M663.489,280.567c-5.636,5.203-13.112,11.806-18.16,17.555
						c2.137,3.967,5.132,7.412,8.103,10.822c4.053,4.652,8.106,9.305,12.16,13.958c3.017,3.463,10.942,14.526,16.396,13.444
						c2.871-0.57,6.815-5.908,8.924-7.856c3.368-3.113,6.737-6.226,10.105-9.338c1.085-1.002,2.254-2.195,2.207-3.644
						c-0.039-1.18-0.884-2.158-1.688-3.029c-10.205-11.052-18.906-22.673-30.278-32.579c-0.822-0.716-1.704-1.457-2.791-1.65
						C666.597,277.919,664.88,279.282,663.489,280.567z"/>
					<path style="fill:#B3D6E3;" d="M672.328,335.255c-0.465-0.036-0.905-0.215-1.336-0.394
						c-7.376-3.063-15.169-7.709-21.507-12.569c-0.241-0.185-0.496-0.394-0.568-0.689c-0.046-0.188-0.01-0.384,0.027-0.574
						c0.202-1.038,1.005-1.026,1.252-2.055c0.08-0.331,0.24-0.73,0.579-0.753c0.169-0.011,0.324,0.082,0.468,0.171
						c6.19,3.876,11.65,6.952,17.514,11.307c0.22,0.164,0.46,0.335,0.734,0.34c0.271,0.005,0.516-0.153,0.74-0.306
						c0.675-0.458,1.35-0.916,2.025-1.373c0.178-0.121,0.378-0.247,0.591-0.217c0.234,0.033,0.397,0.242,0.534,0.434
						c0.597,0.835,2.655,2.911,2.239,3.806C675.225,333.233,673.221,335.323,672.328,335.255z"/>
				</g>
			</g>
		</g>
		<g>
			<path style="fill:#F0CFC2;" d="M813.887,280.266c4.11,0.841,8.327,3.04,9.874,6.94c1.009,2.542,0.728,5.388,0.432,8.108
				c-2.05,18.806-4.102,37.633-7.516,56.24c-0.603,3.288-1.278,6.647-3.024,9.497c-1.985,3.242-5.17,5.532-8.27,7.732
				c-5.085,3.611-10.171,7.221-15.257,10.832c-4.601,3.266-14.619,8.36-19.692,10.855c-0.455,0.223-0.823,0.395-1.141,0.529
				c-1.114,1.167-3.021,2.16-4.229,3.081c-1.621,1.235-3.242,2.47-4.863,3.705c-1.22,0.93-2.505,1.888-4.017,2.147
				c-2.277,0.39-4.671-1.055-5.593-3.173c-0.922-2.118-0.434-4.716,1.018-6.513c0.681-0.843,1.617-1.712,1.463-2.785
				c-0.04-0.278-0.156-0.546-0.152-0.827c0.009-0.665,0.649-1.124,1.226-1.455c2.884-1.656,5.945-3.006,9.112-4.019
				c0.151-0.048,0.304-0.095,0.459-0.136c0.359-0.272,0.821-0.595,1.417-1.001c5.007-3.412,14.43-11.906,19.436-15.319
				c4.947-3.371,10.196-7.125,12.141-12.787c1.238-3.603,0.958-7.524,0.728-11.326c-0.846-13.948-0.831-27.949,0.045-41.896
				c0.226-3.594,0.522-7.246,1.828-10.602c1.305-3.356,3.777-6.43,7.174-7.626C808.844,279.635,811.44,279.766,813.887,280.266z"/>
		</g>
		<path style="fill:#9AAAB5;" d="M780.027,385.751c0.188,0.327,0.417,0.686,0.786,0.766c0.339,0.073,0.674-0.117,0.969-0.3
			c5.75-3.568,11.5-7.136,17.25-10.704c7.561-4.692,15.596-9.935,18.843-18.22c1.59-4.057,1.866-8.489,2.17-12.836
			c0.86-12.308,2.09-24.603,4.243-36.751c0.778-4.39,1.68-8.79,1.702-13.248c0.019-3.804-0.602-7.581-1.305-11.319
			c-0.219-1.164-0.459-2.36-1.115-3.345c-0.846-1.271-2.271-2.025-3.684-2.601c-4.803-1.958-10.197-2.44-15.271-1.363
			c-2.003,0.425-4.009,1.116-5.566,2.446c-4.088,3.49-3.726,9.76-3.48,15.129c0.291,6.352-0.071,12.733-1.08,19.01
			c-0.691,4.303-1.688,8.596-1.607,12.953c0.066,3.537,0.842,7.017,1.321,10.522c0.613,4.48,0.741,9.026,0.383,13.534
			c-0.109,1.379-0.273,2.784-0.864,4.034c-0.785,1.659-2.242,2.884-3.656,4.054c-4.987,4.128-11.22,8.037-15.527,12.853
			c-2.614,2.922-1.352,3.49,0.642,6.953C776.799,380.126,778.412,382.939,780.027,385.751z"/>
	</g>
</g>
</svg>
